<?xml version="1.0" encoding="UTF-8"?>
<svg xmlns="http://www.w3.org/2000/svg" width="96.0000in" height="96.0000in" viewBox="0 0 96.0000 96.0000">
  <title>MASTER_LAYOUT_COMBINED_v130</title>
  <g id="FRONT" data-name="FRONT">
    <path d="M 2.0000 2.0000 L 42.0000 2.0000 L 42.0000 42.0000 L 2.0000 42.0000 L 2.0000 2.0000 Z" fill="none" stroke="#ff00ff" stroke-width="0.001" transform="translate(0.5000, 0.5000) translate(-2.0, -2.0)" id="FRONT_OUTSIDE_CUTS" data-name="OUTSIDE CUTS" />
    <path d="M 2.0 2.0 h 40.0 v 40.0 h -40.0 z M 2.5984 2.5984 h 38.8032 v 38.8032 h -38.8032 z" fill="none" stroke="#00ff00" stroke-width="0.001" transform="translate(0.5000, 0.5000) translate(-2.0, -2.0)" id="FRONT_RABBET" data-name="RABBET" />
  </g>
  <g id="BACK" data-name="BACK">
    <path d="M 2.0000 2.0000 L 42.0000 2.0000 L 42.0000 42.0000 L 2.0000 42.0000 Z" fill="none" stroke="#ff00ff" stroke-width="0.001" transform="translate(0.5000, 41.0000) translate(-2.0, -2.0)" id="BACK_OUTSIDE_CUTS" data-name="OUTSIDE CUTS" />
    <path d="M 7.5 15.3333 a 0.1 0.1 0 1 0 0.2 0 a 0.1 0.1 0 1 0 -0.2 0 M 16.459999999999997 15.3333 a 0.1 0.1 0 1 0 0.2 0 a 0.1 0.1 0 1 0 -0.2 0 M 27.02 15.3333 a 0.1 0.1 0 1 0 0.2 0 a 0.1 0.1 0 1 0 -0.2 0 M 36.3 15.3333 a 0.1 0.1 0 1 0 0.2 0 a 0.1 0.1 0 1 0 -0.2 0" fill="none" stroke="#00ffff" stroke-width="0.001" transform="translate(0.5000, 41.0000) translate(-2.0, -2.0)" id="BACK_HOLE" data-name="HOLE" />
    <path d="M 2.0 2.0 h 40.0 v 40.0 h -40.0 z M 2.5984 2.5984 h 38.8032 v 38.8032 h -38.8032 z" fill="none" stroke="#00ff00" stroke-width="0.001" transform="translate(0.5000, 41.0000) translate(-2.0, -2.0)" id="BACK_RABBET" data-name="RABBET" />
  </g>
  <g id="LEFT" data-name="LEFT">
    <path d="M 2.5984 2.0000 L 41.4016 2.0000 L 41.4016 2.6071 L 42.0000 2.6071 L 42.0000 3.2143 L 42.0000 3.2143 L 41.4016 3.2143 L 41.4016 3.8214 L 42.0000 3.8214 L 42.0000 4.4286 L 42.0000 4.4286 L 41.4016 4.4286 L 41.4016 5.0357 L 42.0000 5.0357 L 42.0000 5.6429 L 42.0000 5.6429 L 41.4016 5.6429 L 41.4016 6.2500 L 2.5984 6.2500 L 2.5984 5.6429 L 2.0000 5.6429 L 2.0000 5.0357 L 2.0000 5.0357 L 2.5984 5.0357 L 2.5984 4.4286 L 2.0000 4.4286 L 2.0000 3.8214 L 2.0000 3.8214 L 2.5984 3.8214 L 2.5984 3.2143 L 2.0000 3.2143 L 2.0000 2.6071 L 2.0000 2.6071 L 2.5984 2.6071 L 2.5984 2.0000 Z" fill="none" stroke="#ff00ff" stroke-width="0.001" transform="translate(45.2500, 0.5000) rotate(90) translate(-2.0, -2.0)" id="LEFT_OUTSIDE_CUTS" data-name="OUTSIDE CUTS" />
  </g>
  <g id="RIGHT" data-name="RIGHT">
    <path d="M 2.5984 2.0000 L 41.4016 2.0000 L 41.4016 2.6071 L 42.0000 2.6071 L 42.0000 3.2143 L 42.0000 3.2143 L 41.4016 3.2143 L 41.4016 3.8214 L 42.0000 3.8214 L 42.0000 4.4286 L 42.0000 4.4286 L 41.4016 4.4286 L 41.4016 5.0357 L 42.0000 5.0357 L 42.0000 5.6429 L 42.0000 5.6429 L 41.4016 5.6429 L 41.4016 6.2500 L 2.5984 6.2500 L 2.5984 5.6429 L 2.0000 5.6429 L 2.0000 5.0357 L 2.0000 5.0357 L 2.5984 5.0357 L 2.5984 4.4286 L 2.0000 4.4286 L 2.0000 3.8214 L 2.0000 3.8214 L 2.5984 3.8214 L 2.5984 3.2143 L 2.0000 3.2143 L 2.0000 2.6071 L 2.0000 2.6071 L 2.5984 2.6071 L 2.5984 2.0000 Z" fill="none" stroke="#ff00ff" stroke-width="0.001" transform="translate(45.2500, 41.0000) rotate(90) translate(-2.0, -2.0)" id="RIGHT_OUTSIDE_CUTS" data-name="OUTSIDE CUTS" />
  </g>
  <g id="TOP" data-name="TOP">
    <path d="M 2.0000 2.0000 L 40.8032 2.0000 L 40.8032 2.0000 L 41.4016 2.0000 L 41.4016 2.6071 L 40.8032 2.6071 L 40.8032 2.6071 L 40.8032 3.2143 L 40.8032 3.2143 L 41.4016 3.2143 L 41.4016 3.8214 L 40.8032 3.8214 L 40.8032 3.8214 L 40.8032 4.4286 L 40.8032 4.4286 L 41.4016 4.4286 L 41.4016 5.0357 L 40.8032 5.0357 L 40.8032 5.0357 L 40.8032 5.6429 L 40.8032 5.6429 L 41.4016 5.6429 L 41.4016 6.2500 L 40.8032 6.2500 L 40.8032 6.2500 L 2.0000 6.2500 L 2.0000 6.2500 L 1.4016 6.2500 L 1.4016 5.6429 L 2.0000 5.6429 L 2.0000 5.6429 L 2.0000 5.0357 L 2.0000 5.0357 L 1.4016 5.0357 L 1.4016 4.4286 L 2.0000 4.4286 L 2.0000 4.4286 L 2.0000 3.8214 L 2.0000 3.8214 L 1.4016 3.8214 L 1.4016 3.2143 L 2.0000 3.2143 L 2.0000 3.2143 L 2.0000 2.6071 L 2.0000 2.6071 L 1.4016 2.6071 L 1.4016 2.0000 L 2.0000 2.0000 L 2.0000 2.0000 Z" fill="none" stroke="#ff00ff" stroke-width="0.001" transform="translate(0.5000, 81.5000) translate(-2.0, -2.0)" id="TOP_OUTSIDE_CUTS" data-name="OUTSIDE CUTS" />
  </g>
  <g id="BOTTOM" data-name="BOTTOM">
    <path d="M 2.0000 2.0000 L 40.8032 2.0000 L 40.8032 2.0000 L 41.4016 2.0000 L 41.4016 2.6071 L 40.8032 2.6071 L 40.8032 2.6071 L 40.8032 3.2143 L 40.8032 3.2143 L 41.4016 3.2143 L 41.4016 3.8214 L 40.8032 3.8214 L 40.8032 3.8214 L 40.8032 4.4286 L 40.8032 4.4286 L 41.4016 4.4286 L 41.4016 5.0357 L 40.8032 5.0357 L 40.8032 5.0357 L 40.8032 5.6429 L 40.8032 5.6429 L 41.4016 5.6429 L 41.4016 6.2500 L 40.8032 6.2500 L 40.8032 6.2500 L 2.0000 6.2500 L 2.0000 6.2500 L 1.4016 6.2500 L 1.4016 5.6429 L 2.0000 5.6429 L 2.0000 5.6429 L 2.0000 5.0357 L 2.0000 5.0357 L 1.4016 5.0357 L 1.4016 4.4286 L 2.0000 4.4286 L 2.0000 4.4286 L 2.0000 3.8214 L 2.0000 3.8214 L 1.4016 3.8214 L 1.4016 3.2143 L 2.0000 3.2143 L 2.0000 3.2143 L 2.0000 2.6071 L 2.0000 2.6071 L 1.4016 2.6071 L 1.4016 2.0000 L 2.0000 2.0000 L 2.0000 2.0000 Z" fill="none" stroke="#ff00ff" stroke-width="0.001" transform="translate(0.5000, 86.2500) translate(-2.0, -2.0)" id="BOTTOM_OUTSIDE_CUTS" data-name="OUTSIDE CUTS" />
    <path d="M 17.2743 4.125 a 0.25 0.25 0 1 0 0.5 0 a 0.25 0.25 0 1 0 -0.5 0 M 16.8472 3.5148 a 0.0669 0.0669 0 1 0 0.1338 0 a 0.0669 0.0669 0 1 0 -0.1338 0 M 18.0677 3.5148 a 0.0669 0.0669 0 1 0 0.1338 0 a 0.0669 0.0669 0 1 0 -0.1338 0 M 16.8472 4.7352 a 0.0669 0.0669 0 1 0 0.1338 0 a 0.0669 0.0669 0 1 0 -0.1338 0 M 18.0677 4.7352 a 0.0669 0.0669 0 1 0 0.1338 0 a 0.0669 0.0669 0 1 0 -0.1338 0" fill="none" stroke="#00ffff" stroke-width="0.001" transform="translate(0.5000, 86.2500) translate(-2.0, -2.0)" id="BOTTOM_HOLE" data-name="HOLE" />
    <path d="M 16.6976 3.2982 h 1.6535 v 1.6535 h -1.6535 z" fill="none" stroke="#00ff00" stroke-width="0.001" transform="translate(0.5000, 86.2500) translate(-2.0, -2.0)" id="BOTTOM_RABBET" data-name="RABBET" />
    <path d="M 16.6197 2.4275 h 3.0 v 3.395 h -3.0 z M 16.0197 1.8275 h 4.2 v 4.595 h -4.2 z M 16.2697 2.2181 a 0.1406 0.1406 0 1 0 0.2812 0 a 0.1406 0.1406 0 1 0 -0.2812 0 M 19.6885 2.2181 a 0.1406 0.1406 0 1 0 0.2812 0 a 0.1406 0.1406 0 1 0 -0.2812 0 M 16.2697 6.0319 a 0.1406 0.1406 0 1 0 0.2812 0 a 0.1406 0.1406 0 1 0 -0.2812 0 M 19.6885 6.0319 a 0.1406 0.1406 0 1 0 0.2812 0 a 0.1406 0.1406 0 1 0 -0.2812 0" fill="none" stroke="#ff0000" stroke-width="0.001" transform="translate(0.5000, 86.2500) translate(-2.0, -2.0)" id="BOTTOM_INSIDE_WINDOW" data-name="INSIDE WINDOW" />
  </g>
  <g id="CLEAT_WALL" data-name="CLEAT_WALL">
    <path d="M 2.0 2.0 h 32.0 v 4.0 h -32.0 z" fill="none" stroke="#ff00ff" stroke-width="0.001" transform="translate(0.5000, 91.0000) translate(-2.0, -2.0)" id="CLEAT_WALL_OUTSIDE_CUTS" data-name="OUTSIDE CUTS" />
    <path d="M 17.906 3.25 a 0.094 0.094 0 1 0 0.188 0 a 0.094 0.094 0 1 0 -0.188 0 M 17.906 4.75 a 0.094 0.094 0 1 0 0.188 0 a 0.094 0.094 0 1 0 -0.188 0 M 19.906 3.25 a 0.094 0.094 0 1 0 0.188 0 a 0.094 0.094 0 1 0 -0.188 0 M 19.906 4.75 a 0.094 0.094 0 1 0 0.188 0 a 0.094 0.094 0 1 0 -0.188 0 M 15.906 3.25 a 0.094 0.094 0 1 0 0.188 0 a 0.094 0.094 0 1 0 -0.188 0 M 15.906 4.75 a 0.094 0.094 0 1 0 0.188 0 a 0.094 0.094 0 1 0 -0.188 0 M 21.906 3.25 a 0.094 0.094 0 1 0 0.188 0 a 0.094 0.094 0 1 0 -0.188 0 M 21.906 4.75 a 0.094 0.094 0 1 0 0.188 0 a 0.094 0.094 0 1 0 -0.188 0 M 13.906 3.25 a 0.094 0.094 0 1 0 0.188 0 a 0.094 0.094 0 1 0 -0.188 0 M 13.906 4.75 a 0.094 0.094 0 1 0 0.188 0 a 0.094 0.094 0 1 0 -0.188 0 M 23.906 3.25 a 0.094 0.094 0 1 0 0.188 0 a 0.094 0.094 0 1 0 -0.188 0 M 23.906 4.75 a 0.094 0.094 0 1 0 0.188 0 a 0.094 0.094 0 1 0 -0.188 0 M 11.906 3.25 a 0.094 0.094 0 1 0 0.188 0 a 0.094 0.094 0 1 0 -0.188 0 M 11.906 4.75 a 0.094 0.094 0 1 0 0.188 0 a 0.094 0.094 0 1 0 -0.188 0 M 25.906 3.25 a 0.094 0.094 0 1 0 0.188 0 a 0.094 0.094 0 1 0 -0.188 0 M 25.906 4.75 a 0.094 0.094 0 1 0 0.188 0 a 0.094 0.094 0 1 0 -0.188 0 M 9.906 3.25 a 0.094 0.094 0 1 0 0.188 0 a 0.094 0.094 0 1 0 -0.188 0 M 9.906 4.75 a 0.094 0.094 0 1 0 0.188 0 a 0.094 0.094 0 1 0 -0.188 0 M 27.906 3.25 a 0.094 0.094 0 1 0 0.188 0 a 0.094 0.094 0 1 0 -0.188 0 M 27.906 4.75 a 0.094 0.094 0 1 0 0.188 0 a 0.094 0.094 0 1 0 -0.188 0 M 7.906 3.25 a 0.094 0.094 0 1 0 0.188 0 a 0.094 0.094 0 1 0 -0.188 0 M 7.906 4.75 a 0.094 0.094 0 1 0 0.188 0 a 0.094 0.094 0 1 0 -0.188 0 M 29.906 3.25 a 0.094 0.094 0 1 0 0.188 0 a 0.094 0.094 0 1 0 -0.188 0 M 29.906 4.75 a 0.094 0.094 0 1 0 0.188 0 a 0.094 0.094 0 1 0 -0.188 0 M 5.906 3.25 a 0.094 0.094 0 1 0 0.188 0 a 0.094 0.094 0 1 0 -0.188 0 M 5.906 4.75 a 0.094 0.094 0 1 0 0.188 0 a 0.094 0.094 0 1 0 -0.188 0 M 31.906 3.25 a 0.094 0.094 0 1 0 0.188 0 a 0.094 0.094 0 1 0 -0.188 0 M 31.906 4.75 a 0.094 0.094 0 1 0 0.188 0 a 0.094 0.094 0 1 0 -0.188 0 M 3.906 3.25 a 0.094 0.094 0 1 0 0.188 0 a 0.094 0.094 0 1 0 -0.188 0 M 3.906 4.75 a 0.094 0.094 0 1 0 0.188 0 a 0.094 0.094 0 1 0 -0.188 0 M 17.8125 3.25 a 0.1875 0.1875 0 1 0 0.375 0 a 0.1875 0.1875 0 1 0 -0.375 0 M 17.8125 4.75 a 0.1875 0.1875 0 1 0 0.375 0 a 0.1875 0.1875 0 1 0 -0.375 0 M 19.8125 3.25 a 0.1875 0.1875 0 1 0 0.375 0 a 0.1875 0.1875 0 1 0 -0.375 0 M 19.8125 4.75 a 0.1875 0.1875 0 1 0 0.375 0 a 0.1875 0.1875 0 1 0 -0.375 0 M 15.8125 3.25 a 0.1875 0.1875 0 1 0 0.375 0 a 0.1875 0.1875 0 1 0 -0.375 0 M 15.8125 4.75 a 0.1875 0.1875 0 1 0 0.375 0 a 0.1875 0.1875 0 1 0 -0.375 0 M 21.8125 3.25 a 0.1875 0.1875 0 1 0 0.375 0 a 0.1875 0.1875 0 1 0 -0.375 0 M 21.8125 4.75 a 0.1875 0.1875 0 1 0 0.375 0 a 0.1875 0.1875 0 1 0 -0.375 0 M 13.8125 3.25 a 0.1875 0.1875 0 1 0 0.375 0 a 0.1875 0.1875 0 1 0 -0.375 0 M 13.8125 4.75 a 0.1875 0.1875 0 1 0 0.375 0 a 0.1875 0.1875 0 1 0 -0.375 0 M 23.8125 3.25 a 0.1875 0.1875 0 1 0 0.375 0 a 0.1875 0.1875 0 1 0 -0.375 0 M 23.8125 4.75 a 0.1875 0.1875 0 1 0 0.375 0 a 0.1875 0.1875 0 1 0 -0.375 0 M 11.8125 3.25 a 0.1875 0.1875 0 1 0 0.375 0 a 0.1875 0.1875 0 1 0 -0.375 0 M 11.8125 4.75 a 0.1875 0.1875 0 1 0 0.375 0 a 0.1875 0.1875 0 1 0 -0.375 0 M 25.8125 3.25 a 0.1875 0.1875 0 1 0 0.375 0 a 0.1875 0.1875 0 1 0 -0.375 0 M 25.8125 4.75 a 0.1875 0.1875 0 1 0 0.375 0 a 0.1875 0.1875 0 1 0 -0.375 0 M 9.8125 3.25 a 0.1875 0.1875 0 1 0 0.375 0 a 0.1875 0.1875 0 1 0 -0.375 0 M 9.8125 4.75 a 0.1875 0.1875 0 1 0 0.375 0 a 0.1875 0.1875 0 1 0 -0.375 0 M 27.8125 3.25 a 0.1875 0.1875 0 1 0 0.375 0 a 0.1875 0.1875 0 1 0 -0.375 0 M 27.8125 4.75 a 0.1875 0.1875 0 1 0 0.375 0 a 0.1875 0.1875 0 1 0 -0.375 0 M 7.8125 3.25 a 0.1875 0.1875 0 1 0 0.375 0 a 0.1875 0.1875 0 1 0 -0.375 0 M 7.8125 4.75 a 0.1875 0.1875 0 1 0 0.375 0 a 0.1875 0.1875 0 1 0 -0.375 0 M 29.8125 3.25 a 0.1875 0.1875 0 1 0 0.375 0 a 0.1875 0.1875 0 1 0 -0.375 0 M 29.8125 4.75 a 0.1875 0.1875 0 1 0 0.375 0 a 0.1875 0.1875 0 1 0 -0.375 0 M 5.8125 3.25 a 0.1875 0.1875 0 1 0 0.375 0 a 0.1875 0.1875 0 1 0 -0.375 0 M 5.8125 4.75 a 0.1875 0.1875 0 1 0 0.375 0 a 0.1875 0.1875 0 1 0 -0.375 0 M 31.8125 3.25 a 0.1875 0.1875 0 1 0 0.375 0 a 0.1875 0.1875 0 1 0 -0.375 0 M 31.8125 4.75 a 0.1875 0.1875 0 1 0 0.375 0 a 0.1875 0.1875 0 1 0 -0.375 0 M 3.8125 3.25 a 0.1875 0.1875 0 1 0 0.375 0 a 0.1875 0.1875 0 1 0 -0.375 0 M 3.8125 4.75 a 0.1875 0.1875 0 1 0 0.375 0 a 0.1875 0.1875 0 1 0 -0.375 0" fill="none" stroke="#00ffff" stroke-width="0.001" transform="translate(0.5000, 91.0000) translate(-2.0, -2.0)" id="CLEAT_WALL_HOLE" data-name="HOLE" />
    <path d="M 2.0 2.5984 L 34.0 2.5984" fill="none" stroke="#ffe500" stroke-width="0.001" transform="translate(0.5000, 91.0000) translate(-2.0, -2.0)" id="CLEAT_WALL_SCORE" data-name="SCORE" />
  </g>
  <g id="BOTTOM_HATCH_LID" data-name="BOTTOM_HATCH_LID">
    <path d="M 2.0 2.0 h 4.2 v 4.595 h -4.2 z M 2.6 2.6 h 3.0 v 3.395 h -3.0 z M 2.2906 2.3906 a 0.1 0.1 0 1 0 0.2 0 a 0.1 0.1 0 1 0 -0.2 0 M 5.7094000000000005 2.3906 a 0.1 0.1 0 1 0 0.2 0 a 0.1 0.1 0 1 0 -0.2 0 M 2.2906 6.2044 a 0.1 0.1 0 1 0 0.2 0 a 0.1 0.1 0 1 0 -0.2 0 M 5.7094000000000005 6.2044 a 0.1 0.1 0 1 0 0.2 0 a 0.1 0.1 0 1 0 -0.2 0 M 3.8500 2.9609 L 4.3500 2.9609 L 4.3500 3.4609 L 4.7791 3.4609 A 0.1575 0.1575 0 0 1 4.9366 3.6184 L 4.9366 4.9766 A 0.1575 0.1575 0 0 1 4.7791 5.1341 L 3.4209 5.1341 A 0.1575 0.1575 0 0 1 3.2634 4.9766 L 3.2634 3.6184 A 0.1575 0.1575 0 0 1 3.4209 3.4609 L 3.8500 3.4609 Z M 3.4208999999999996 3.6873 a 0.0689 0.0689 0 1 0 0.1378 0 a 0.0689 0.0689 0 1 0 -0.1378 0 M 4.6413 3.6873 a 0.0689 0.0689 0 1 0 0.1378 0 a 0.0689 0.0689 0 1 0 -0.1378 0 M 3.4208999999999996 4.9077 a 0.0689 0.0689 0 1 0 0.1378 0 a 0.0689 0.0689 0 1 0 -0.1378 0 M 4.6413 4.9077 a 0.0689 0.0689 0 1 0 0.1378 0 a 0.0689 0.0689 0 1 0 -0.1378 0" fill="none" stroke="#ff00ff" stroke-width="0.001" transform="translate(43.7572, 81.5000) rotate(90) translate(-2.0, -2.0)" id="BOTTOM_HATCH_LID_OUTSIDE_CUTS" data-name="OUTSIDE CUTS" />
  </g>
  <g id="CLEAT_BOX" data-name="CLEAT_BOX">
    <path d="M 2.0 2.0 h 32.0 v 4.0 h -32.0 z" fill="none" stroke="#ff00ff" stroke-width="0.001" transform="translate(52.5000, 0.5000) translate(-2.0, -2.0)" id="CLEAT_BOX_OUTSIDE_CUTS" data-name="OUTSIDE CUTS" />
    <path d="M 3.5060000000000002 4.0 a 0.094 0.094 0 1 0 0.188 0 a 0.094 0.094 0 1 0 -0.188 0 M 12.466000000000001 4.0 a 0.094 0.094 0 1 0 0.188 0 a 0.094 0.094 0 1 0 -0.188 0 M 23.026 4.0 a 0.094 0.094 0 1 0 0.188 0 a 0.094 0.094 0 1 0 -0.188 0 M 32.306 4.0 a 0.094 0.094 0 1 0 0.188 0 a 0.094 0.094 0 1 0 -0.188 0 M 3.4125 4.0 a 0.1875 0.1875 0 1 0 0.375 0 a 0.1875 0.1875 0 1 0 -0.375 0 M 12.3725 4.0 a 0.1875 0.1875 0 1 0 0.375 0 a 0.1875 0.1875 0 1 0 -0.375 0 M 22.9325 4.0 a 0.1875 0.1875 0 1 0 0.375 0 a 0.1875 0.1875 0 1 0 -0.375 0 M 32.2125 4.0 a 0.1875 0.1875 0 1 0 0.375 0 a 0.1875 0.1875 0 1 0 -0.375 0" fill="none" stroke="#00ffff" stroke-width="0.001" transform="translate(52.5000, 0.5000) translate(-2.0, -2.0)" id="CLEAT_BOX_HOLE" data-name="HOLE" />
    <path d="M 2.0 2.5984 L 34.0 2.5984" fill="none" stroke="#ffe500" stroke-width="0.001" transform="translate(52.5000, 0.5000) translate(-2.0, -2.0)" id="CLEAT_BOX_SCORE" data-name="SCORE" />
  </g>
</svg>