<?xml version="1.0" encoding="UTF-8"?>
<svg xmlns="http://www.w3.org/2000/svg" width="30.0000in" height="9.0000in" viewBox="0 0 30.0000 9.0000">
  <title>COMBINED_RAILS_VISUALIZATION</title>
    <g id="TOP" data-name="TOP" transform="translate(2.3765, 2.0000)">
      <path d="M 2.0000 2.0000 L 40.8032 2.0000 L 40.8032 2.0000 L 41.3937 2.0000 L 41.3937 2.6032 L 40.8032 2.6032 L 40.8032 2.6071 L 40.8032 3.2143 L 40.8032 3.2182 L 41.3937 3.2182 L 41.3937 3.8175 L 40.8032 3.8175 L 40.8032 3.8214 L 40.8032 4.4286 L 40.8032 4.4325 L 41.3937 4.4325 L 41.3937 5.0318 L 40.8032 5.0318 L 40.8032 5.0357 L 40.8032 5.6429 L 40.8032 5.6468 L 41.3937 5.6468 L 41.3937 6.2500 L 40.8032 6.2500 L 40.8032 6.2500 L 2.0000 6.2500 L 2.0000 6.2500 L 1.4095 6.2500 L 1.4095 5.6468 L 2.0000 5.6468 L 2.0000 5.6429 L 2.0000 5.0357 L 2.0000 5.0318 L 1.4095 5.0318 L 1.4095 4.4325 L 2.0000 4.4325 L 2.0000 4.4286 L 2.0000 3.8214 L 2.0000 3.8175 L 1.4095 3.8175 L 1.4095 3.2182 L 2.0000 3.2182 L 2.0000 3.2143 L 2.0000 2.6071 L 2.0000 2.6032 L 1.4095 2.6032 L 1.4095 2.0000 L 2.0000 2.0000 L 2.0000 2.0000 Z" fill="#e5db1f" stroke="#000000" stroke-width="0.01"/>
    </g>
    <g id="LEFT" data-name="LEFT" transform="translate(9.7922, 2.0000)">
      <path d="M 2.5984 2.0000 L 41.4016 2.0000 L 41.4016 2.6071 L 42.0000 2.6071 L 42.0000 3.2143 L 42.0000 3.2143 L 41.4016 3.2143 L 41.4016 3.8214 L 42.0000 3.8214 L 42.0000 4.4286 L 42.0000 4.4286 L 41.4016 4.4286 L 41.4016 5.0357 L 42.0000 5.0357 L 42.0000 5.6429 L 42.0000 5.6429 L 41.4016 5.6429 L 41.4016 6.2500 L 2.5984 6.2500 L 2.5984 5.6429 L 2.0000 5.6429 L 2.0000 5.0357 L 2.0000 5.0357 L 2.5984 5.0357 L 2.5984 4.4286 L 2.0000 4.4286 L 2.0000 3.8214 L 2.0000 3.8214 L 2.5984 3.8214 L 2.5984 3.2143 L 2.0000 3.2143 L 2.0000 2.6071 L 2.0000 2.6071 L 2.5984 2.6071 L 2.5984 2.0000 Z" fill="#1abce8" stroke="#000000" stroke-width="0.01"/>
    </g>
    <g id="BOTTOM" data-name="BOTTOM" transform="translate(15.1527, 2.0000)">
      <path d="M 2.0000 2.0000 L 40.8032 2.0000 L 40.8032 2.0000 L 41.3937 2.0000 L 41.3937 2.6032 L 40.8032 2.6032 L 40.8032 2.6071 L 40.8032 3.2143 L 40.8032 3.2182 L 41.3937 3.2182 L 41.3937 3.8175 L 40.8032 3.8175 L 40.8032 3.8214 L 40.8032 4.4286 L 40.8032 4.4325 L 41.3937 4.4325 L 41.3937 5.0318 L 40.8032 5.0318 L 40.8032 5.0357 L 40.8032 5.6429 L 40.8032 5.6468 L 41.3937 5.6468 L 41.3937 6.2500 L 40.8032 6.2500 L 40.8032 6.2500 L 2.0000 6.2500 L 2.0000 6.2500 L 1.4095 6.2500 L 1.4095 5.6468 L 2.0000 5.6468 L 2.0000 5.6429 L 2.0000 5.0357 L 2.0000 5.0318 L 1.4095 5.0318 L 1.4095 4.4325 L 2.0000 4.4325 L 2.0000 4.4286 L 2.0000 3.8214 L 2.0000 3.8175 L 1.4095 3.8175 L 1.4095 3.2182 L 2.0000 3.2182 L 2.0000 3.2143 L 2.0000 2.6071 L 2.0000 2.6032 L 1.4095 2.6032 L 1.4095 2.0000 L 2.0000 2.0000 L 2.0000 2.0000 Z" fill="#f975e6" stroke="#000000" stroke-width="0.01"/>
    </g>
    <g id="RIGHT" data-name="RIGHT" transform="translate(22.4568, 2.0000)">
      <path d="M 2.5984 2.0000 L 41.4016 2.0000 L 41.4016 2.6071 L 42.0000 2.6071 L 42.0000 3.2143 L 42.0000 3.2143 L 41.4016 3.2143 L 41.4016 3.8214 L 42.0000 3.8214 L 42.0000 4.4286 L 42.0000 4.4286 L 41.4016 4.4286 L 41.4016 5.0357 L 42.0000 5.0357 L 42.0000 5.6429 L 42.0000 5.6429 L 41.4016 5.6429 L 41.4016 6.2500 L 2.5984 6.2500 L 2.5984 5.6429 L 2.0000 5.6429 L 2.0000 5.0357 L 2.0000 5.0357 L 2.5984 5.0357 L 2.5984 4.4286 L 2.0000 4.4286 L 2.0000 3.8214 L 2.0000 3.8214 L 2.5984 3.8214 L 2.5984 3.2143 L 2.0000 3.2143 L 2.0000 2.6071 L 2.0000 2.6071 L 2.5984 2.6071 L 2.5984 2.0000 Z" fill="#14f4af" stroke="#000000" stroke-width="0.01"/>
    </g>
</svg>