<?xml version="1.0" encoding="UTF-8"?>
<svg id="Layer_1" xmlns="http://www.w3.org/2000/svg" width="96.5556in" height="48.2778in" version="1.1" viewBox="0 0 6952.0034 3476.0017">
  <!-- Generator: Adobe Illustrator 29.7.1, SVG Export Plug-In . SVG Version: 2.1.1 Build 8)  -->
  <defs>
    <style>
      .st0, .st1, .st2, .st3, .st4, .st5, .st6, .st7, .st8, .st9, .st10, .st11, .st12 {
        fill: none;
        stroke-miterlimit: 288;
      }

      .st0, .st1, .st4, .st5, .st7, .st10, .st11 {
        stroke-width: 4px;
      }

      .st0, .st6 {
        stroke: #f0f;
      }

      .st1, .st9 {
        stroke: red;
      }

      .st2 {
        stroke: #e09500;
      }

      .st3 {
        stroke: #8fea00;
      }

      .st4 {
        stroke: aqua;
      }

      .st5 {
        stroke: #15ff2b;
      }

      .st7 {
        stroke: #ff0006;
      }

      .st8 {
        stroke: blue;
      }

      .st10 {
        stroke: lime;
      }

      .st11 {
        stroke: #ffe500;
      }

      .st12 {
        stroke: #00dbff;
        stroke-width: 20px;
      }
    </style>
  </defs>
  <g id="FRONT">
    <path id="FRONT_OUTSIDE_CUTS" class="st0" d="M3603,108.2674h2880v2879.9999h-2880V108.2674Z"/>
    <path id="FRONT_RABBET" class="st10" d="M3603,108.2674h2880v2879.9999h-2880V108.2674ZM3646.6536,151.921h2792.7v2792.6998h-2792.7V151.921Z"/>
    <path id="FRONT_INSIDE_WINDOW" class="st1" d="M3664.0847,169.3522v2757.8304h2757.8303V169.3522h-2757.8303Z"/>
  </g>
  <g id="BACK">
    <path id="BACK_OUTSIDE_CUTS" class="st0" d="M98,96h2880v2880H98V96Z"/>
    <path id="BACK_HOLE" class="st4" d="M494,1055.9976c-.0056,3.9764,3.2134,7.2046,7.1899,7.2101s7.2045-3.2134,7.2101-7.1899v-.0203c.0056-3.9764-3.2134-7.2046-7.1899-7.2101s-7.2045,3.2134-7.2101,7.1899v.0203M1139.1199,1055.9976c0,3.9764,3.2235,7.2,7.2,7.2s7.2-3.2236,7.2-7.2-3.2235-7.2-7.2-7.2-7.2,3.2236-7.2,7.2h0M1899.4399,1055.9976c0,3.9764,3.2235,7.2,7.2,7.2s7.2-3.2236,7.2-7.2-3.2235-7.2-7.2-7.2-7.2,3.2236-7.2,7.2h0M2567.5999,1055.9976c0,3.9764,3.2236,7.2,7.2002,7.2s7.2-3.2236,7.2-7.2-3.2236-7.2-7.2-7.2-7.2002,3.2236-7.2002,7.2h0"/>
    <path id="BACK_RABBET" class="st10" d="M98,96h2880v2880H98V96ZM141.6536,139.6536h2792.6999v2792.6999H141.6536V139.6536Z"/>
  </g>
  <g id="LEFT">
    <path id="LEFT_OUTSIDE_CUTS" class="st0" d="M6874,151.3522v2793.8304h-43.7114v43.0847h-43.7183v-43.0847h-43.7114v43.0847h-43.7183v-43.0847h-43.7114v43.0847h-43.7183v-43.0847h-43.7114V151.3522h43.7114v-43.0848h43.7183v43.0848h43.7114v-43.0848h43.7183v43.0848h43.7114v-43.0848h43.7183v43.0848h43.7114Z"/>
  </g>
  <g id="RIGHT">
    <path id="RIGHT_OUTSIDE_CUTS" class="st0" d="M3370,139.0848v2793.8302h-43.7112v43.0847h-43.7185v-43.0847h-43.7112v43.0847h-43.7185v-43.0847h-43.7112v43.0847h-43.7185v-43.0847h-43.7112V139.0848h43.7112v-43.0848h43.7185v43.0848h43.7112v-43.0848h43.7185v43.0848h43.7112v-43.0848h43.7185v43.0848h43.7112Z"/>
  </g>
  <g id="TOP">
    <path id="TOP_OUTSIDE_CUTS" class="st0" d="M98,3012h2836.9153v43.4304h-43.0847v44.28h43.0847v43.1497h-43.0847v44.28h43.0847v43.1497h-43.0847v44.28h43.0847v43.4304H54.9152v-43.4304h43.0848v-44.28h-43.0848v-43.1497h43.0848v-44.28h-43.0848v-43.1497h43.0848v-44.28h-43.0848v-43.4304h43.0848Z"/>
  </g>
  <g id="CLEAT_WALL">
    <g>
      <path class="st5" d="M1696.8856,2289.9023c-.0063,3.7378,3.0188,6.7732,6.7566,6.7793s6.7731-3.0188,6.7794-6.7566v-.0227c.0063-3.7378-3.0188-6.7732-6.7566-6.7793s-6.7731,3.0188-6.7794,6.7566v.0227"/>
      <path class="st5" d="M1696.8856,2397.9023c-.0063,3.7378,3.0188,6.7732,6.7566,6.7793,3.7378.0063,6.7731-3.0188,6.7794-6.7566v-.0227c.0063-3.7378-3.0188-6.7732-6.7566-6.7793-3.7378-.0063-6.7731,3.0188-6.7794,6.7566v.0227"/>
      <path class="st5" d="M1840.8856,2289.9023c-.0063,3.7378,3.0188,6.7732,6.7566,6.7793s6.7731-3.0188,6.7794-6.7566v-.0227c.0063-3.7378-3.0188-6.7732-6.7566-6.7793s-6.7731,3.0188-6.7794,6.7566v.0227"/>
      <path class="st5" d="M1840.8856,2397.9023c-.0063,3.7378,3.0188,6.7732,6.7566,6.7793,3.7378.0063,6.7731-3.0188,6.7794-6.7566v-.0227c.0063-3.7378-3.0188-6.7732-6.7566-6.7793-3.7378-.0063-6.7731,3.0188-6.7794,6.7566v.0227"/>
      <path class="st5" d="M1552.8856,2289.9023c-.0063,3.7378,3.0187,6.7732,6.7566,6.7793,3.7378.0063,6.7731-3.0188,6.7794-6.7566v-.0227c.0063-3.7378-3.0188-6.7732-6.7566-6.7793s-6.7731,3.0188-6.7794,6.7566v.0227"/>
      <path class="st5" d="M1552.8856,2397.9023c-.0063,3.7378,3.0187,6.7732,6.7566,6.7793,3.7378.0063,6.7731-3.0188,6.7794-6.7566v-.0227c.0063-3.7378-3.0188-6.7732-6.7566-6.7793-3.7378-.0063-6.7731,3.0188-6.7794,6.7566v.0227"/>
      <path class="st5" d="M1984.8856,2289.9023c-.0063,3.7378,3.0188,6.7732,6.7566,6.7793s6.7731-3.0188,6.7794-6.7566v-.0227c.0063-3.7378-3.0188-6.7732-6.7566-6.7793s-6.7731,3.0188-6.7794,6.7566v.0227"/>
      <path class="st5" d="M1984.8856,2397.9023c-.0063,3.7378,3.0188,6.7732,6.7566,6.7793,3.7378.0063,6.7731-3.0188,6.7794-6.7566v-.0227c.0063-3.7378-3.0188-6.7732-6.7566-6.7793-3.7378-.0063-6.7731,3.0188-6.7794,6.7566v.0227"/>
      <path class="st5" d="M1408.8856,2289.9023c-.0063,3.7378,3.0187,6.7732,6.7566,6.7793,3.7378.0063,6.7731-3.0188,6.7794-6.7566v-.0227c.0063-3.7378-3.0187-6.7732-6.7566-6.7793-3.7378-.0063-6.7731,3.0188-6.7794,6.7566v.0227"/>
      <path class="st5" d="M1408.8856,2397.9023c-.0063,3.7378,3.0187,6.7732,6.7566,6.7793,3.7378.0063,6.7731-3.0188,6.7794-6.7566v-.0227c.0063-3.7378-3.0187-6.7732-6.7566-6.7793-3.7378-.0063-6.7731,3.0188-6.7794,6.7566v.0227"/>
      <path class="st5" d="M2128.8855,2289.9023c-.0063,3.7378,3.0188,6.7732,6.7566,6.7793s6.7732-3.0188,6.7793-6.7566v-.0227c.0063-3.7378-3.0188-6.7732-6.7566-6.7793s-6.7732,3.0188-6.7793,6.7566v.0227"/>
      <path class="st5" d="M2128.8855,2397.9023c-.0063,3.7378,3.0188,6.7732,6.7566,6.7793,3.7378.0063,6.7732-3.0188,6.7793-6.7566v-.0227c.0063-3.7378-3.0188-6.7732-6.7566-6.7793-3.7378-.0063-6.7732,3.0188-6.7793,6.7566v.0227"/>
      <path class="st5" d="M1264.8856,2289.9023c-.0063,3.7378,3.0187,6.7732,6.7566,6.7793,3.7378.0063,6.7731-3.0188,6.7794-6.7566v-.0227c.0063-3.7378-3.0187-6.7732-6.7566-6.7793-3.7378-.0063-6.7731,3.0188-6.7794,6.7566v.0227"/>
      <path class="st5" d="M1264.8856,2397.9023c-.0063,3.7378,3.0187,6.7732,6.7566,6.7793,3.7378.0063,6.7731-3.0188,6.7794-6.7566v-.0227c.0063-3.7378-3.0187-6.7732-6.7566-6.7793-3.7378-.0063-6.7731,3.0188-6.7794,6.7566v.0227"/>
      <path class="st5" d="M2272.8855,2289.9023c-.0063,3.7378,3.0188,6.7732,6.7566,6.7793s6.7732-3.0188,6.7793-6.7566v-.0227c.0063-3.7378-3.0188-6.7732-6.7566-6.7793s-6.7732,3.0188-6.7793,6.7566v.0227"/>
      <path class="st5" d="M2272.8855,2397.9023c-.0063,3.7378,3.0188,6.7732,6.7566,6.7793,3.7378.0063,6.7732-3.0188,6.7793-6.7566v-.0227c.0063-3.7378-3.0188-6.7732-6.7566-6.7793-3.7378-.0063-6.7732,3.0188-6.7793,6.7566v.0227"/>
      <path class="st5" d="M1120.8856,2289.9023c-.0063,3.7378,3.0187,6.7732,6.7566,6.7793,3.7378.0063,6.7731-3.0188,6.7794-6.7566v-.0227c.0063-3.7378-3.0187-6.7732-6.7566-6.7793-3.7378-.0063-6.7731,3.0188-6.7794,6.7566v.0227"/>
      <path class="st5" d="M1120.8856,2397.9023c-.0063,3.7378,3.0187,6.7732,6.7566,6.7793,3.7378.0063,6.7731-3.0188,6.7794-6.7566v-.0227c.0063-3.7378-3.0187-6.7732-6.7566-6.7793-3.7378-.0063-6.7731,3.0188-6.7794,6.7566v.0227"/>
      <path class="st5" d="M2416.8855,2289.9023c-.0063,3.7378,3.0188,6.7732,6.7566,6.7793s6.7732-3.0188,6.7793-6.7566v-.0227c.0063-3.7378-3.0188-6.7732-6.7566-6.7793s-6.7732,3.0188-6.7793,6.7566v.0227"/>
      <path class="st5" d="M2416.8855,2397.9023c-.0063,3.7378,3.0188,6.7732,6.7566,6.7793,3.7378.0063,6.7732-3.0188,6.7793-6.7566v-.0227c.0063-3.7378-3.0188-6.7732-6.7566-6.7793-3.7378-.0063-6.7732,3.0188-6.7793,6.7566v.0227"/>
      <path class="st5" d="M976.8856,2289.9023c-.0063,3.7378,3.0187,6.7732,6.7566,6.7793,3.7378.0063,6.7731-3.0188,6.7794-6.7566v-.0227c0-3.7378-3.0302-6.7681-6.768-6.7681s-6.768,3.03-6.768,6.7681"/>
      <path class="st5" d="M976.8856,2397.9023c-.0063,3.7378,3.0187,6.7732,6.7566,6.7793,3.7378.0063,6.7731-3.0188,6.7794-6.7566v-.0227c0-3.7378-3.0302-6.7681-6.768-6.7681s-6.768,3.03-6.768,6.7681"/>
      <path class="st5" d="M2560.8855,2289.9023c-.0063,3.7378,3.0188,6.7732,6.7566,6.7793s6.7732-3.0188,6.7793-6.7566v-.0227c.0063-3.7378-3.0188-6.7732-6.7566-6.7793s-6.7732,3.0188-6.7793,6.7566v.0227"/>
      <path class="st5" d="M2560.8855,2397.9023c-.0063,3.7378,3.0188,6.7732,6.7566,6.7793,3.7378.0063,6.7732-3.0188,6.7793-6.7566v-.0227c.0063-3.7378-3.0188-6.7732-6.7566-6.7793-3.7378-.0063-6.7732,3.0188-6.7793,6.7566v.0227"/>
      <path class="st5" d="M832.8856,2289.9023c0,3.7378,3.0301,6.7681,6.768,6.7681s6.768-3.03,6.768-6.7681-3.0301-6.7681-6.768-6.7681-6.768,3.03-6.768,6.7681"/>
      <path class="st5" d="M832.8856,2397.9023c0,3.7378,3.0301,6.7681,6.768,6.7681s6.768-3.03,6.768-6.7681-3.0301-6.7681-6.768-6.7681-6.768,3.03-6.768,6.7681"/>
      <path class="st5" d="M2704.8855,2289.9023c0,3.7378,3.0303,6.7681,6.7681,6.7681s6.7681-3.0303,6.7681-6.7681c.0063-3.7378-3.0188-6.7732-6.7566-6.7793s-6.7732,3.0188-6.7793,6.7566v.0227"/>
      <path class="st5" d="M2704.8855,2397.9023c0,3.7378,3.0303,6.7681,6.7681,6.7681s6.7681-3.0303,6.7681-6.7681c.0063-3.7378-3.0188-6.7732-6.7566-6.7793-3.7378-.0063-6.7732,3.0188-6.7793,6.7566v.0227"/>
      <path class="st5" d="M688.8856,2289.9023c-.0021,3.7378,3.0264,6.7698,6.7642,6.7717,3.7379.0022,6.7697-3.0264,6.7717-6.7644v-.0076c.0021-3.7378-3.0264-6.7698-6.7642-6.7717-3.7379-.0022-6.7697,3.0264-6.7717,6.7644v.0076"/>
      <path class="st5" d="M688.8856,2397.9023c-.0021,3.7378,3.0264,6.7698,6.7642,6.7717,3.7379.0022,6.7697-3.0264,6.7717-6.7642v-.0076c.0021-3.7378-3.0264-6.7698-6.7642-6.7717-3.7379-.0022-6.7697,3.0264-6.7717,6.7642v.0076"/>
      <g id="Cleat_Countersink">
        <path class="st5" d="M1690.1536,2289.9023c0,7.4558,6.0441,13.5,13.5,13.5s13.5-6.0442,13.5-13.5-6.0441-13.5-13.5-13.5-13.5,6.0442-13.5,13.5"/>
        <path class="st5" d="M1834.1536,2289.9023c0,7.4558,6.0441,13.5,13.5,13.5s13.5-6.0442,13.5-13.5-6.0441-13.5-13.5-13.5-13.5,6.0442-13.5,13.5"/>
        <path class="st5" d="M1546.1536,2289.9023c0,7.4558,6.0441,13.5,13.5,13.5s13.5-6.0442,13.5-13.5-6.0441-13.5-13.5-13.5-13.5,6.0442-13.5,13.5"/>
        <path class="st5" d="M1978.1536,2289.9023c0,7.4558,6.0441,13.5,13.5,13.5s13.5-6.0442,13.5-13.5-6.0441-13.5-13.5-13.5-13.5,6.0442-13.5,13.5"/>
        <path class="st5" d="M1402.1536,2289.9023c0,7.4558,6.0441,13.5,13.5,13.5s13.5-6.0442,13.5-13.5-6.0441-13.5-13.5-13.5-13.5,6.0442-13.5,13.5"/>
        <path class="st5" d="M2122.1536,2289.9023c0,7.4558,6.0442,13.5,13.5,13.5s13.5-6.0442,13.5-13.5-6.0442-13.5-13.5-13.5-13.5,6.0442-13.5,13.5"/>
        <path class="st5" d="M1258.1536,2289.9023c0,7.4558,6.0441,13.5,13.5,13.5s13.5-6.0442,13.5-13.5-6.0441-13.5-13.5-13.5-13.5,6.0442-13.5,13.5"/>
        <path class="st5" d="M2266.1536,2289.9023c0,7.4558,6.0442,13.5,13.5,13.5s13.5-6.0442,13.5-13.5-6.0442-13.5-13.5-13.5-13.5,6.0442-13.5,13.5"/>
        <path class="st5" d="M1114.1536,2289.9023c0,7.4558,6.0441,13.5,13.5,13.5s13.5-6.0442,13.5-13.5-6.0441-13.5-13.5-13.5-13.5,6.0442-13.5,13.5"/>
        <path class="st5" d="M2410.1536,2289.9023c0,7.4558,6.0442,13.5,13.5,13.5s13.5-6.0442,13.5-13.5-6.0442-13.5-13.5-13.5-13.5,6.0442-13.5,13.5"/>
        <path class="st5" d="M970.1536,2289.9023c0,7.4558,6.0442,13.5,13.5,13.5s13.5-6.0442,13.5-13.5-6.0441-13.5-13.5-13.5-13.5,6.0442-13.5,13.5"/>
        <path class="st5" d="M2554.1536,2289.9023c0,7.4558,6.0442,13.5,13.5,13.5s13.5-6.0442,13.5-13.5-6.0442-13.5-13.5-13.5-13.5,6.0442-13.5,13.5"/>
        <path class="st5" d="M826.1536,2289.9023c0,7.4558,6.0442,13.5,13.5,13.5s13.5-6.0442,13.5-13.5-6.0442-13.5-13.5-13.5-13.5,6.0442-13.5,13.5"/>
        <path class="st5" d="M2698.1536,2289.9023c0,7.4558,6.0442,13.5,13.5,13.5s13.5-6.0442,13.5-13.5-6.0442-13.5-13.5-13.5-13.5,6.0442-13.5,13.5"/>
        <path class="st5" d="M682.1536,2289.9023c0,7.4558,6.0442,13.5,13.5,13.5s13.5-6.0442,13.5-13.5-6.0442-13.5-13.5-13.5-13.5,6.0442-13.5,13.5"/>
        <g>
          <path class="st5" d="M1690.1536,2397.9023c0,7.4558,6.0441,13.5,13.5,13.5s13.5-6.0442,13.5-13.5-6.0441-13.5-13.5-13.5-13.5,6.0442-13.5,13.5"/>
          <path class="st5" d="M1834.1536,2397.9023c0,7.4558,6.0441,13.5,13.5,13.5s13.5-6.0442,13.5-13.5-6.0441-13.5-13.5-13.5-13.5,6.0442-13.5,13.5"/>
          <path class="st5" d="M1546.1536,2397.9023c0,7.4558,6.0441,13.5,13.5,13.5s13.5-6.0442,13.5-13.5-6.0441-13.5-13.5-13.5-13.5,6.0442-13.5,13.5"/>
          <path class="st5" d="M1978.1536,2397.9023c0,7.4558,6.0441,13.5,13.5,13.5s13.5-6.0442,13.5-13.5-6.0441-13.5-13.5-13.5-13.5,6.0442-13.5,13.5"/>
          <path class="st5" d="M1402.1536,2397.9023c0,7.4558,6.0441,13.5,13.5,13.5s13.5-6.0442,13.5-13.5-6.0441-13.5-13.5-13.5-13.5,6.0442-13.5,13.5"/>
          <path class="st5" d="M2122.1536,2397.9023c0,7.4558,6.0442,13.5,13.5,13.5s13.5-6.0442,13.5-13.5-6.0442-13.5-13.5-13.5-13.5,6.0442-13.5,13.5"/>
          <path class="st5" d="M1258.1536,2397.9023c0,7.4558,6.0441,13.5,13.5,13.5s13.5-6.0442,13.5-13.5-6.0441-13.5-13.5-13.5-13.5,6.0442-13.5,13.5"/>
          <path class="st5" d="M2266.1536,2397.9023c0,7.4558,6.0442,13.5,13.5,13.5s13.5-6.0442,13.5-13.5-6.0442-13.5-13.5-13.5-13.5,6.0442-13.5,13.5"/>
          <path class="st5" d="M1114.1536,2397.9023c0,7.4558,6.0441,13.5,13.5,13.5s13.5-6.0442,13.5-13.5-6.0441-13.5-13.5-13.5-13.5,6.0442-13.5,13.5"/>
          <path class="st5" d="M2410.1536,2397.9023c0,7.4558,6.0442,13.5,13.5,13.5s13.5-6.0442,13.5-13.5-6.0442-13.5-13.5-13.5-13.5,6.0442-13.5,13.5"/>
          <path class="st5" d="M970.1536,2397.9023c0,7.4558,6.0442,13.5,13.5,13.5s13.5-6.0442,13.5-13.5-6.0441-13.5-13.5-13.5-13.5,6.0442-13.5,13.5"/>
          <path class="st5" d="M2554.1536,2397.9023c0,7.4558,6.0442,13.5,13.5,13.5s13.5-6.0442,13.5-13.5-6.0442-13.5-13.5-13.5-13.5,6.0442-13.5,13.5"/>
          <path class="st5" d="M826.1536,2397.9023c0,7.4558,6.0442,13.5,13.5,13.5s13.5-6.0442,13.5-13.5-6.0442-13.5-13.5-13.5-13.5,6.0442-13.5,13.5"/>
          <path class="st5" d="M2698.1536,2397.9023c0,7.4558,6.0442,13.5,13.5,13.5s13.5-6.0442,13.5-13.5-6.0442-13.5-13.5-13.5-13.5,6.0442-13.5,13.5"/>
          <path class="st5" d="M682.1536,2397.9023c0,7.4558,6.0442,13.5,13.5,13.5s13.5-6.0442,13.5-13.5-6.0442-13.5-13.5-13.5-13.5,6.0442-13.5,13.5"/>
        </g>
      </g>
    </g>
  </g>
  <g id="CLEAT_BOX">
    <path id="CLEAT_BOX_OUTSIDE_CUTS" class="st0" d="M551.6536,2562.3799h2303.9999v288H551.6536v-288Z"/>
    <path class="st5" d="M660.0856,2706.3799c-.0021,3.7378,3.0264,6.7698,6.7642,6.7717,3.7379.0022,6.7697-3.0264,6.7717-6.7642v-.0076c.0021-3.7378-3.0264-6.7698-6.7642-6.7717-3.7379-.0022-6.7697,3.0264-6.7717,6.7644v.0076"/>
    <path class="st5" d="M1305.2056,2706.3799c-.0063,3.7378,3.0187,6.7732,6.7566,6.7793,3.7378.0063,6.7731-3.0188,6.7794-6.7566v-.0227c.0063-3.7378-3.0187-6.7732-6.7566-6.7793-3.7378-.0063-6.7731,3.0188-6.7794,6.7566v.0227"/>
    <path class="st5" d="M2065.5254,2706.3799c-.0063,3.7378,3.0188,6.7732,6.7566,6.7793,3.7378.0063,6.7732-3.0188,6.7793-6.7566v-.0227c.0063-3.7378-3.0188-6.7732-6.7566-6.7793s-6.7732,3.0188-6.7793,6.7566v.0227"/>
    <path class="st5" d="M2733.6855,2706.3799c-.0063,3.7378,3.0188,6.7732,6.7566,6.7793,3.7378.0063,6.7732-3.0188,6.7793-6.7566v-.0227c.0063-3.7378-3.0188-6.7732-6.7566-6.7793s-6.7732,3.0188-6.7793,6.7566v.0227"/>
    <g>
      <path class="st5" d="M653.3536,2706.3799c0,7.4558,6.0442,13.5,13.5,13.5s13.5-6.0442,13.5-13.5-6.0442-13.5-13.5-13.5-13.5,6.0442-13.5,13.5"/>
      <path class="st5" d="M1298.4736,2706.3799c0,7.4558,6.0441,13.5,13.5,13.5s13.5-6.0442,13.5-13.5-6.0441-13.5-13.5-13.5-13.5,6.0442-13.5,13.5"/>
      <path class="st5" d="M2058.7937,2706.3799c0,7.4558,6.0442,13.5,13.5,13.5s13.5-6.0442,13.5-13.5-6.0442-13.5-13.5-13.5-13.5,6.0442-13.5,13.5"/>
      <path class="st5" d="M2726.9536,2706.3799c0,7.4558,6.0442,13.5,13.5,13.5s13.5-6.0442,13.5-13.5-6.0442-13.5-13.5-13.5-13.5,6.0442-13.5,13.5"/>
    </g>
    <path id="CLEAT_BOX_SCORE" class="st11" d="M551.6536,2605.4646h2303.9999"/>
  </g>
  <path class="st6" d="M141.6536,2168.3267h2792.6992"/>
  <g id="CLEAT_BOX-2">
    <path id="CLEAT_BOX_OUTSIDE_CUTS-2" class="st0" d="M551.6536,2562.3799h2303.9999v288H551.6536v-288Z"/>
    <path class="st7" d="M660.0856,2706.3799c-.0021,3.7378,3.0264,6.7698,6.7642,6.7717,3.7379.0022,6.7697-3.0264,6.7717-6.7642v-.0076c.0021-3.7378-3.0264-6.7698-6.7642-6.7717-3.7379-.0022-6.7697,3.0264-6.7717,6.7644v.0076"/>
    <path class="st7" d="M1305.2056,2706.3799c-.0063,3.7378,3.0187,6.7732,6.7566,6.7793,3.7378.0063,6.7731-3.0188,6.7794-6.7566v-.0227c.0063-3.7378-3.0187-6.7732-6.7566-6.7793-3.7378-.0063-6.7731,3.0188-6.7794,6.7566v.0227"/>
    <path class="st7" d="M2065.5254,2706.3799c-.0063,3.7378,3.0188,6.7732,6.7566,6.7793,3.7378.0063,6.7732-3.0188,6.7793-6.7566v-.0227c.0063-3.7378-3.0188-6.7732-6.7566-6.7793s-6.7732,3.0188-6.7793,6.7566v.0227"/>
    <path class="st7" d="M2733.6855,2706.3799c-.0063,3.7378,3.0188,6.7732,6.7566,6.7793,3.7378.0063,6.7732-3.0188,6.7793-6.7566v-.0227c.0063-3.7378-3.0188-6.7732-6.7566-6.7793s-6.7732,3.0188-6.7793,6.7566v.0227"/>
    <g>
      <path class="st5" d="M653.3536,2706.3799c0,7.4558,6.0442,13.5,13.5,13.5s13.5-6.0442,13.5-13.5-6.0442-13.5-13.5-13.5-13.5,6.0442-13.5,13.5"/>
      <path class="st5" d="M1298.4736,2706.3799c0,7.4558,6.0441,13.5,13.5,13.5s13.5-6.0442,13.5-13.5-6.0441-13.5-13.5-13.5-13.5,6.0442-13.5,13.5"/>
      <path class="st5" d="M2058.7937,2706.3799c0,7.4558,6.0442,13.5,13.5,13.5s13.5-6.0442,13.5-13.5-6.0442-13.5-13.5-13.5-13.5,6.0442-13.5,13.5"/>
      <path class="st5" d="M2726.9536,2706.3799c0,7.4558,6.0442,13.5,13.5,13.5s13.5-6.0442,13.5-13.5-6.0442-13.5-13.5-13.5-13.5,6.0442-13.5,13.5"/>
    </g>
    <path id="CLEAT_BOX_SCORE-2" class="st11" d="M551.6536,2605.4646h2303.9999"/>
  </g>
  <rect class="st12" x="10" y="10" width="6932" height="3456"/>
  <g>
    <g id="HATCH_CUT_-_goes_on_rail">
      <rect class="st9" x="4810.3879" y="3137.9756" width="204.8976" height="153.5144"/>
      <rect id="HATCH_ITSELF" class="st2" x="4763.8801" y="3094.5105" width="297.9131" height="240.4445"/>
      <circle class="st8" cx="4792.767" cy="3128.7677" r="10.1232"/>
      <circle class="st8" cx="5032.9133" cy="3128.7676" r="10.1232"/>
      <circle class="st8" cx="4792.767" cy="3300.6908" r="10.1232"/>
      <circle class="st8" cx="5032.9134" cy="3300.6907" r="10.1232"/>
    </g>
    <path id="BOTTOM_OUTSIDE_CUTS" class="st0" d="M3646.088,3061.7327h2836.9155v43.4304h-43.085v44.28h43.085v43.1497h-43.085v44.28h43.085v43.1497h-43.085v44.28h43.085v43.4304h-2880v-43.4304h43.0847v-44.28h-43.0847v-43.1497h43.0847v-44.28h-43.0847v-43.1497h43.0847v-44.28h-43.0847v-43.4304h43.0847-.0002Z"/>
  </g>
  <g id="HATCH_LID_-_goes_elsewhere">
    <rect id="HATCH_ITSELF1" data-name="HATCH_ITSELF" class="st9" x="198.962" y="2365.0201" width="297.9131" height="240.4445" transform="translate(2833.1609 2137.3238) rotate(90)"/>
    <rect class="st2" x="245.4698" y="2408.4851" width="204.8976" height="153.5144" transform="translate(2833.1609 2137.3238) rotate(90)"/>
    <circle class="st8" cx="433.4305" cy="2365.1726" r="7.2"/>
    <circle class="st8" cx="433.4306" cy="2605.319" r="7.2"/>
    <circle class="st8" cx="261.5073" cy="2365.1727" r="7.2"/>
    <circle class="st8" cx="261.5074" cy="2605.3191" r="7.2"/>
    <path class="st3" d="M444.1574,2467.2424v36h-36v30.8952c0,6.2629-5.0771,11.34-11.34,11.34h-97.7976c-6.2601-.004-11.3328-5.0799-11.3328-11.34v-97.7904c0-6.2601,5.0727-11.336,11.3328-11.34h97.7976c6.2629,0,11.34,5.0771,11.34,11.34v30.8952h36,0Z"/>
    <circle class="st8" cx="391.8566" cy="2441.3079" r="4.9608"/>
    <circle class="st8" cx="391.8566" cy="2529.1767" r="4.9608"/>
    <circle class="st8" cx="303.9806" cy="2441.3079" r="4.9608"/>
    <circle class="st8" cx="303.9806" cy="2529.1767" r="4.9608"/>
  </g>
</svg>