  0
SECTION
  2
HEADER
  9
$ACADVER
  1
AC1027
  9
$ACADMAINTVER
 70
105
  9
$DWGCODEPAGE
  3
ANSI_1252
  9
$LASTSAVEDBY
  1
ezdxf
  9
$REQUIREDVERSIONS
160
0
  9
$INSBASE
 10
0.0
 20
0.0
 30
0.0
  9
$EXTMIN
 10
1e+20
 20
1e+20
 30
1e+20
  9
$EXTMAX
 10
-1e+20
 20
-1e+20
 30
-1e+20
  9
$LIMMIN
 10
0.0
 20
0.0
  9
$LIMMAX
 10
420.0
 20
297.0
  9
$ORTHOMODE
 70
0
  9
$REGENMODE
 70
1
  9
$FILLMODE
 70
1
  9
$QTEXTMODE
 70
0
  9
$MIRRTEXT
 70
1
  9
$LTSCALE
 40
1.0
  9
$ATTMODE
 70
1
  9
$TEXTSIZE
 40
2.5
  9
$TRACEWID
 40
1.0
  9
$TEXTSTYLE
  7
Standard
  9
$CLAYER
  8
0
  9
$CELTYPE
  6
ByLayer
  9
$CECOLOR
 62
256
  9
$CELTSCALE
 40
1.0
  9
$DISPSILH
 70
0
  9
$DIMSCALE
 40
1.0
  9
$DIMASZ
 40
2.5
  9
$DIMEXO
 40
0.625
  9
$DIMDLI
 40
3.75
  9
$DIMRND
 40
0.0
  9
$DIMDLE
 40
0.0
  9
$DIMEXE
 40
1.25
  9
$DIMTP
 40
0.0
  9
$DIMTM
 40
0.0
  9
$DIMTXT
 40
2.5
  9
$DIMCEN
 40
2.5
  9
$DIMTSZ
 40
0.0
  9
$DIMTOL
 70
0
  9
$DIMLIM
 70
0
  9
$DIMTIH
 70
0
  9
$DIMTOH
 70
0
  9
$DIMSE1
 70
0
  9
$DIMSE2
 70
0
  9
$DIMTAD
 70
1
  9
$DIMZIN
 70
8
  9
$DIMBLK
  1

  9
$DIMASO
 70
1
  9
$DIMSHO
 70
1
  9
$DIMPOST
  1

  9
$DIMAPOST
  1

  9
$DIMALT
 70
0
  9
$DIMALTD
 70
3
  9
$DIMALTF
 40
0.03937007874
  9
$DIMLFAC
 40
1.0
  9
$DIMTOFL
 70
1
  9
$DIMTVP
 40
0.0
  9
$DIMTIX
 70
0
  9
$DIMSOXD
 70
0
  9
$DIMSAH
 70
0
  9
$DIMBLK1
  1

  9
$DIMBLK2
  1

  9
$DIMSTYLE
  2
ISO-25
  9
$DIMCLRD
 70
0
  9
$DIMCLRE
 70
0
  9
$DIMCLRT
 70
0
  9
$DIMTFAC
 40
1.0
  9
$DIMGAP
 40
0.625
  9
$DIMJUST
 70
0
  9
$DIMSD1
 70
0
  9
$DIMSD2
 70
0
  9
$DIMTOLJ
 70
0
  9
$DIMTZIN
 70
8
  9
$DIMALTZ
 70
0
  9
$DIMALTTZ
 70
0
  9
$DIMUPT
 70
0
  9
$DIMDEC
 70
2
  9
$DIMTDEC
 70
2
  9
$DIMALTU
 70
2
  9
$DIMALTTD
 70
3
  9
$DIMTXSTY
  7
Standard
  9
$DIMAUNIT
 70
0
  9
$DIMADEC
 70
0
  9
$DIMALTRND
 40
0.0
  9
$DIMAZIN
 70
0
  9
$DIMDSEP
 70
44
  9
$DIMATFIT
 70
3
  9
$DIMFRAC
 70
0
  9
$DIMLDRBLK
  1

  9
$DIMLUNIT
 70
2
  9
$DIMLWD
 70
-2
  9
$DIMLWE
 70
-2
  9
$DIMTMOVE
 70
0
  9
$DIMFXL
 40
1.0
  9
$DIMFXLON
 70
0
  9
$DIMJOGANG
 40
0.785398163397
  9
$DIMTFILL
 70
0
  9
$DIMTFILLCLR
 70
0
  9
$DIMARCSYM
 70
0
  9
$DIMLTYPE
  6

  9
$DIMLTEX1
  6

  9
$DIMLTEX2
  6

  9
$DIMTXTDIRECTION
 70
0
  9
$LUNITS
 70
2
  9
$LUPREC
 70
4
  9
$SKETCHINC
 40
1.0
  9
$FILLETRAD
 40
10.0
  9
$AUNITS
 70
0
  9
$AUPREC
 70
2
  9
$MENU
  1
.
  9
$ELEVATION
 40
0.0
  9
$PELEVATION
 40
0.0
  9
$THICKNESS
 40
0.0
  9
$LIMCHECK
 70
0
  9
$CHAMFERA
 40
0.0
  9
$CHAMFERB
 40
0.0
  9
$CHAMFERC
 40
0.0
  9
$CHAMFERD
 40
0.0
  9
$SKPOLY
 70
0
  9
$TDCREATE
 40
2461034.1211689813
  9
$TDUCREATE
 40
2458532.153996898
  9
$TDUPDATE
 40
2461034.1211689813
  9
$TDUUPDATE
 40
2458532.1544311
  9
$TDINDWG
 40
0.0
  9
$TDUSRTIMER
 40
0.0
  9
$USRTIMER
 70
1
  9
$ANGBASE
 50
0.0
  9
$ANGDIR
 70
0
  9
$PDMODE
 70
0
  9
$PDSIZE
 40
0.0
  9
$PLINEWID
 40
0.0
  9
$SPLFRAME
 70
0
  9
$SPLINETYPE
 70
6
  9
$SPLINESEGS
 70
8
  9
$HANDSEED
  5
15D
  9
$SURFTAB1
 70
6
  9
$SURFTAB2
 70
6
  9
$SURFTYPE
 70
6
  9
$SURFU
 70
6
  9
$SURFV
 70
6
  9
$UCSBASE
  2

  9
$UCSNAME
  2

  9
$UCSORG
 10
0.0
 20
0.0
 30
0.0
  9
$UCSXDIR
 10
1.0
 20
0.0
 30
0.0
  9
$UCSYDIR
 10
0.0
 20
1.0
 30
0.0
  9
$UCSORTHOREF
  2

  9
$UCSORTHOVIEW
 70
0
  9
$UCSORGTOP
 10
0.0
 20
0.0
 30
0.0
  9
$UCSORGBOTTOM
 10
0.0
 20
0.0
 30
0.0
  9
$UCSORGLEFT
 10
0.0
 20
0.0
 30
0.0
  9
$UCSORGRIGHT
 10
0.0
 20
0.0
 30
0.0
  9
$UCSORGFRONT
 10
0.0
 20
0.0
 30
0.0
  9
$UCSORGBACK
 10
0.0
 20
0.0
 30
0.0
  9
$PUCSBASE
  2

  9
$PUCSNAME
  2

  9
$PUCSORG
 10
0.0
 20
0.0
 30
0.0
  9
$PUCSXDIR
 10
1.0
 20
0.0
 30
0.0
  9
$PUCSYDIR
 10
0.0
 20
1.0
 30
0.0
  9
$PUCSORTHOREF
  2

  9
$PUCSORTHOVIEW
 70
0
  9
$PUCSORGTOP
 10
0.0
 20
0.0
 30
0.0
  9
$PUCSORGBOTTOM
 10
0.0
 20
0.0
 30
0.0
  9
$PUCSORGLEFT
 10
0.0
 20
0.0
 30
0.0
  9
$PUCSORGRIGHT
 10
0.0
 20
0.0
 30
0.0
  9
$PUCSORGFRONT
 10
0.0
 20
0.0
 30
0.0
  9
$PUCSORGBACK
 10
0.0
 20
0.0
 30
0.0
  9
$USERI1
 70
0
  9
$USERI2
 70
0
  9
$USERI3
 70
0
  9
$USERI4
 70
0
  9
$USERI5
 70
0
  9
$USERR1
 40
0.0
  9
$USERR2
 40
0.0
  9
$USERR3
 40
0.0
  9
$USERR4
 40
0.0
  9
$USERR5
 40
0.0
  9
$WORLDVIEW
 70
1
  9
$SHADEDGE
 70
3
  9
$SHADEDIF
 70
70
  9
$TILEMODE
 70
1
  9
$MAXACTVP
 70
64
  9
$PINSBASE
 10
0.0
 20
0.0
 30
0.0
  9
$PLIMCHECK
 70
0
  9
$PEXTMIN
 10
1e+20
 20
1e+20
 30
1e+20
  9
$PEXTMAX
 10
-1e+20
 20
-1e+20
 30
-1e+20
  9
$PLIMMIN
 10
0.0
 20
0.0
  9
$PLIMMAX
 10
420.0
 20
297.0
  9
$UNITMODE
 70
0
  9
$VISRETAIN
 70
1
  9
$PLINEGEN
 70
0
  9
$PSLTSCALE
 70
1
  9
$TREEDEPTH
 70
3020
  9
$CMLSTYLE
  2
Standard
  9
$CMLJUST
 70
0
  9
$CMLSCALE
 40
20.0
  9
$PROXYGRAPHICS
 70
1
  9
$MEASUREMENT
 70
1
  9
$CELWEIGHT
370
-1
  9
$ENDCAPS
280
0
  9
$JOINSTYLE
280
0
  9
$LWDISPLAY
290
0
  9
$INSUNITS
 70
6
  9
$HYPERLINKBASE
  1

  9
$STYLESHEET
  1

  9
$XEDIT
290
1
  9
$CEPSNTYPE
380
0
  9
$PSTYLEMODE
290
1
  9
$FINGERPRINTGUID
  2
{9B4BCFB6-80EA-4A00-B7B7-0AB9BF122CFC}
  9
$VERSIONGUID
  2
{1353F1A7-6672-4B3F-ADC4-2F13D79AEA9B}
  9
$EXTNAMES
290
1
  9
$PSVPSCALE
 40
0.0
  9
$OLESTARTUP
290
0
  9
$SORTENTS
280
127
  9
$INDEXCTL
280
0
  9
$HIDETEXT
280
1
  9
$XCLIPFRAME
280
1
  9
$HALOGAP
280
0
  9
$OBSCOLOR
 70
257
  9
$OBSLTYPE
280
0
  9
$INTERSECTIONDISPLAY
280
0
  9
$INTERSECTIONCOLOR
 70
257
  9
$DIMASSOC
280
2
  9
$PROJECTNAME
  1

  9
$CAMERADISPLAY
290
0
  9
$LENSLENGTH
 40
50.0
  9
$CAMERAHEIGHT
 40
0.0
  9
$STEPSPERSEC
 40
24.0
  9
$STEPSIZE
 40
100.0
  9
$3DDWFPREC
 40
2.0
  9
$PSOLWIDTH
 40
0.005
  9
$PSOLHEIGHT
 40
0.08
  9
$LOFTANG1
 40
1.570796326795
  9
$LOFTANG2
 40
1.570796326795
  9
$LOFTMAG1
 40
0.0
  9
$LOFTMAG2
 40
0.0
  9
$LOFTPARAM
 70
7
  9
$LOFTNORMALS
280
1
  9
$LATITUDE
 40
37.795
  9
$LONGITUDE
 40
-122.394
  9
$NORTHDIRECTION
 40
0.0
  9
$TIMEZONE
 70
-8000
  9
$LIGHTGLYPHDISPLAY
280
1
  9
$TILEMODELIGHTSYNCH
280
1
  9
$CMATERIAL
347
20
  9
$SOLIDHIST
280
0
  9
$SHOWHIST
280
1
  9
$DWFFRAME
280
2
  9
$DGNFRAME
280
2
  9
$REALWORLDSCALE
290
1
  9
$INTERFERECOLOR
 62
256
  9
$CSHADOW
280
0
  9
$SHADOWPLANELOCATION
 40
0.0
  0
ENDSEC
  0
SECTION
  2
CLASSES
  0
CLASS
  1
ACDBDICTIONARYWDFLT
  2
AcDbDictionaryWithDefault
  3
ObjectDBX Classes
 90
0
 91
0
280
0
281
0
  0
CLASS
  1
SUN
  2
AcDbSun
  3
SCENEOE
 90
1153
 91
0
280
0
281
0
  0
CLASS
  1
VISUALSTYLE
  2
AcDbVisualStyle
  3
ObjectDBX Classes
 90
4095
 91
0
280
0
281
0
  0
CLASS
  1
MATERIAL
  2
AcDbMaterial
  3
ObjectDBX Classes
 90
1153
 91
0
280
0
281
0
  0
CLASS
  1
SCALE
  2
AcDbScale
  3
ObjectDBX Classes
 90
1153
 91
0
280
0
281
0
  0
CLASS
  1
TABLESTYLE
  2
AcDbTableStyle
  3
ObjectDBX Classes
 90
4095
 91
0
280
0
281
0
  0
CLASS
  1
MLEADERSTYLE
  2
AcDbMLeaderStyle
  3
ACDB_MLEADERSTYLE_CLASS
 90
4095
 91
0
280
0
281
0
  0
CLASS
  1
DICTIONARYVAR
  2
AcDbDictionaryVar
  3
ObjectDBX Classes
 90
0
 91
0
280
0
281
0
  0
CLASS
  1
CELLSTYLEMAP
  2
AcDbCellStyleMap
  3
ObjectDBX Classes
 90
1152
 91
0
280
0
281
0
  0
CLASS
  1
MENTALRAYRENDERSETTINGS
  2
AcDbMentalRayRenderSettings
  3
SCENEOE
 90
1024
 91
0
280
0
281
0
  0
CLASS
  1
ACDBDETAILVIEWSTYLE
  2
AcDbDetailViewStyle
  3
ObjectDBX Classes
 90
1025
 91
0
280
0
281
0
  0
CLASS
  1
ACDBSECTIONVIEWSTYLE
  2
AcDbSectionViewStyle
  3
ObjectDBX Classes
 90
1025
 91
0
280
0
281
0
  0
CLASS
  1
RASTERVARIABLES
  2
AcDbRasterVariables
  3
ISM
 90
0
 91
0
280
0
281
0
  0
CLASS
  1
LAYOUT
  2
AcDbLayout
  3
ObjectDBX Classes
 90
0
 91
0
280
0
281
0
  0
CLASS
  1
ACDBPLACEHOLDER
  2
AcDbPlaceHolder
  3
ObjectDBX Classes
 90
0
 91
0
280
0
281
0
  0
ENDSEC
  0
SECTION
  2
TABLES
  0
TABLE
  2
VPORT
  5
8
330
0
100
AcDbSymbolTable
 70
1
  0
VPORT
  5
23
330
8
100
AcDbSymbolTableRecord
100
AcDbViewportTableRecord
  2
*Active
 70
0
 10
0.0
 20
0.0
 11
1.0
 21
1.0
 12
0.0
 22
0.0
 13
0.0
 23
0.0
 14
0.5
 24
0.5
 15
0.5
 25
0.5
 16
0.0
 26
0.0
 36
1.0
 17
0.0
 27
0.0
 37
0.0
 40
1000.0
 41
1.34
 42
50.0
 43
0.0
 44
0.0
 50
0.0
 51
0.0
 71
0
 72
1000
 73
1
 74
3
 75
0
 76
0
 77
0
 78
0
281
0
 65
0
146
0.0
  0
ENDTAB
  0
TABLE
  2
LTYPE
  5
2
330
0
100
AcDbSymbolTable
 70
3
  0
LTYPE
  5
24
330
2
100
AcDbSymbolTableRecord
100
AcDbLinetypeTableRecord
  2
ByBlock
 70
0
  3

 72
65
 73
0
 40
0.0
  0
LTYPE
  5
25
330
2
100
AcDbSymbolTableRecord
100
AcDbLinetypeTableRecord
  2
ByLayer
 70
0
  3

 72
65
 73
0
 40
0.0
  0
LTYPE
  5
26
330
2
100
AcDbSymbolTableRecord
100
AcDbLinetypeTableRecord
  2
Continuous
 70
0
  3

 72
65
 73
0
 40
0.0
  0
ENDTAB
  0
TABLE
  2
LAYER
  5
1
330
0
100
AcDbSymbolTable
 70
2
  0
LAYER
  5
27
330
1
100
AcDbSymbolTableRecord
100
AcDbLayerTableRecord
  2
0
 70
0
 62
7
  6
Continuous
370
-3
390
13
347
21
  0
LAYER
  5
28
330
1
100
AcDbSymbolTableRecord
100
AcDbLayerTableRecord
  2
Defpoints
 70
0
 62
7
  6
Continuous
290
0
370
-3
390
13
347
21
  0
ENDTAB
  0
TABLE
  2
STYLE
  5
5
330
0
100
AcDbSymbolTable
 70
1
  0
STYLE
  5
29
330
5
100
AcDbSymbolTableRecord
100
AcDbTextStyleTableRecord
  2
Standard
 70
0
 40
0.0
 41
1.0
 50
0.0
 71
0
 42
2.5
  3
txt
  4

  0
ENDTAB
  0
TABLE
  2
VIEW
  5
7
330
0
100
AcDbSymbolTable
 70
0
  0
ENDTAB
  0
TABLE
  2
UCS
  5
6
330
0
100
AcDbSymbolTable
 70
0
  0
ENDTAB
  0
TABLE
  2
APPID
  5
3
330
0
100
AcDbSymbolTable
 70
3
  0
APPID
  5
2A
330
3
100
AcDbSymbolTableRecord
100
AcDbRegAppTableRecord
  2
ACAD
 70
0
  0
APPID
  5
15A
330
3
100
AcDbSymbolTableRecord
100
AcDbRegAppTableRecord
  2
HATCHBACKGROUNDCOLOR
 70
0
  0
APPID
  5
15B
330
3
100
AcDbSymbolTableRecord
100
AcDbRegAppTableRecord
  2
EZDXF
 70
0
  0
ENDTAB
  0
TABLE
  2
DIMSTYLE
  5
4
330
0
100
AcDbSymbolTable
 70
1
100
AcDbDimStyleTable
  0
DIMSTYLE
105
2B
330
4
100
AcDbSymbolTableRecord
100
AcDbDimStyleTableRecord
  2
Standard
 70
0
 40
1.0
 41
2.5
 42
0.625
 43
3.75
 44
1.25
 45
0.0
 46
0.0
 47
0.0
 48
0.0
 49
2.5
140
2.5
141
2.5
142
0.0
143
0.03937007874
144
1.0
145
0.0
146
1.0
147
0.625
148
0.0
 69
0
 70
0
 71
0
 72
0
 73
0
 74
0
 75
0
 76
0
 77
1
 78
8
 79
3
170
0
171
3
172
1
173
0
174
0
175
0
176
0
177
0
178
0
179
2
271
2
272
2
273
2
274
3
275
0
276
0
277
2
278
44
279
0
280
0
281
0
282
0
283
0
284
8
285
0
286
0
288
0
289
3
290
0
371
-2
372
-2
  0
ENDTAB
  0
TABLE
  2
BLOCK_RECORD
  5
9
330
0
100
AcDbSymbolTable
 70
2
  0
BLOCK_RECORD
  5
17
330
9
100
AcDbSymbolTableRecord
100
AcDbBlockTableRecord
  2
*Model_Space
340
1A
 70
0
280
1
281
0
  0
BLOCK_RECORD
  5
1B
330
9
100
AcDbSymbolTableRecord
100
AcDbBlockTableRecord
  2
*Paper_Space
340
1E
 70
0
280
1
281
0
  0
ENDTAB
  0
ENDSEC
  0
SECTION
  2
BLOCKS
  0
BLOCK
  5
18
330
17
100
AcDbEntity
  8
0
100
AcDbBlockBegin
  2
*Model_Space
 70
0
 10
0.0
 20
0.0
 30
0.0
  3
*Model_Space
  1

  0
ENDBLK
  5
19
330
17
100
AcDbEntity
  8
0
100
AcDbBlockEnd
  0
BLOCK
  5
1C
330
1B
100
AcDbEntity
  8
0
100
AcDbBlockBegin
  2
*Paper_Space
 70
0
 10
0.0
 20
0.0
 30
0.0
  3
*Paper_Space
  1

  0
ENDBLK
  5
1D
330
1B
100
AcDbEntity
  8
0
100
AcDbBlockEnd
  0
ENDSEC
  0
SECTION
  2
ENTITIES
  0
LWPOLYLINE
  5
2F
330
17
100
AcDbEntity
  8
0
 62
3
100
AcDbPolyline
 90
4
 70
1
 10
0.0
 20
0.0
 10
45.0
 20
0.0
 10
45.0
 20
45.0
 10
0.0
 20
45.0
  0
LWPOLYLINE
  5
30
330
17
100
AcDbEntity
  8
0
 62
3
100
AcDbPolyline
 90
4
 70
1
 10
0.75
 20
0.75
 10
44.25
 20
0.75
 10
44.25
 20
44.25
 10
0.75
 20
44.25
  0
LWPOLYLINE
  5
31
330
17
100
AcDbEntity
  8
0
 62
3
100
AcDbPolyline
 90
4
 70
1
 10
0.4775
 20
0.485
 10
0.4775
 20
0.97
 10
2.0107758620689653
 20
0.97
 10
2.0107758620689653
 20
0.485
  0
CIRCLE
  5
32
330
17
100
AcDbEntity
  8
0
 62
1
100
AcDbCircle
 10
0.415
 20
0.9075
 30
0.0
 40
0.13125
  0
CIRCLE
  5
33
330
17
100
AcDbEntity
  8
0
 62
1
100
AcDbCircle
 10
2.0732758620689653
 20
0.9075
 30
0.0
 40
0.13125
  0
LWPOLYLINE
  5
34
330
17
100
AcDbEntity
  8
0
 62
3
100
AcDbPolyline
 90
4
 70
1
 10
0.4775
 20
44.515
 10
0.4775
 20
44.03
 10
2.0107758620689653
 20
44.03
 10
2.0107758620689653
 20
44.515
  0
CIRCLE
  5
35
330
17
100
AcDbEntity
  8
0
 62
1
100
AcDbCircle
 10
0.415
 20
44.0925
 30
0.0
 40
0.13125
  0
CIRCLE
  5
36
330
17
100
AcDbEntity
  8
0
 62
1
100
AcDbCircle
 10
2.0732758620689653
 20
44.0925
 30
0.0
 40
0.13125
  0
LWPOLYLINE
  5
37
330
17
100
AcDbEntity
  8
0
 62
3
100
AcDbPolyline
 90
4
 70
1
 10
3.514051724137931
 20
0.485
 10
3.514051724137931
 20
0.97
 10
5.047327586206897
 20
0.97
 10
5.047327586206897
 20
0.485
  0
CIRCLE
  5
38
330
17
100
AcDbEntity
  8
0
 62
1
100
AcDbCircle
 10
3.451551724137931
 20
0.9075
 30
0.0
 40
0.13125
  0
CIRCLE
  5
39
330
17
100
AcDbEntity
  8
0
 62
1
100
AcDbCircle
 10
5.109827586206897
 20
0.9075
 30
0.0
 40
0.13125
  0
LWPOLYLINE
  5
3A
330
17
100
AcDbEntity
  8
0
 62
3
100
AcDbPolyline
 90
4
 70
1
 10
3.514051724137931
 20
44.515
 10
3.514051724137931
 20
44.03
 10
5.047327586206897
 20
44.03
 10
5.047327586206897
 20
44.515
  0
CIRCLE
  5
3B
330
17
100
AcDbEntity
  8
0
 62
1
100
AcDbCircle
 10
3.451551724137931
 20
44.0925
 30
0.0
 40
0.13125
  0
CIRCLE
  5
3C
330
17
100
AcDbEntity
  8
0
 62
1
100
AcDbCircle
 10
5.109827586206897
 20
44.0925
 30
0.0
 40
0.13125
  0
LWPOLYLINE
  5
3D
330
17
100
AcDbEntity
  8
0
 62
3
100
AcDbPolyline
 90
4
 70
1
 10
6.550603448275862
 20
0.485
 10
6.550603448275862
 20
0.97
 10
8.083879310344829
 20
0.97
 10
8.083879310344829
 20
0.485
  0
CIRCLE
  5
3E
330
17
100
AcDbEntity
  8
0
 62
1
100
AcDbCircle
 10
6.488103448275862
 20
0.9075
 30
0.0
 40
0.13125
  0
CIRCLE
  5
3F
330
17
100
AcDbEntity
  8
0
 62
1
100
AcDbCircle
 10
8.146379310344829
 20
0.9075
 30
0.0
 40
0.13125
  0
LWPOLYLINE
  5
40
330
17
100
AcDbEntity
  8
0
 62
3
100
AcDbPolyline
 90
4
 70
1
 10
6.550603448275862
 20
44.515
 10
6.550603448275862
 20
44.03
 10
8.083879310344829
 20
44.03
 10
8.083879310344829
 20
44.515
  0
CIRCLE
  5
41
330
17
100
AcDbEntity
  8
0
 62
1
100
AcDbCircle
 10
6.488103448275862
 20
44.0925
 30
0.0
 40
0.13125
  0
CIRCLE
  5
42
330
17
100
AcDbEntity
  8
0
 62
1
100
AcDbCircle
 10
8.146379310344829
 20
44.0925
 30
0.0
 40
0.13125
  0
LWPOLYLINE
  5
43
330
17
100
AcDbEntity
  8
0
 62
3
100
AcDbPolyline
 90
4
 70
1
 10
9.587155172413793
 20
0.485
 10
9.587155172413793
 20
0.97
 10
11.12043103448276
 20
0.97
 10
11.12043103448276
 20
0.485
  0
CIRCLE
  5
44
330
17
100
AcDbEntity
  8
0
 62
1
100
AcDbCircle
 10
9.524655172413793
 20
0.9075
 30
0.0
 40
0.13125
  0
CIRCLE
  5
45
330
17
100
AcDbEntity
  8
0
 62
1
100
AcDbCircle
 10
11.18293103448276
 20
0.9075
 30
0.0
 40
0.13125
  0
LWPOLYLINE
  5
46
330
17
100
AcDbEntity
  8
0
 62
3
100
AcDbPolyline
 90
4
 70
1
 10
9.587155172413793
 20
44.515
 10
9.587155172413793
 20
44.03
 10
11.12043103448276
 20
44.03
 10
11.12043103448276
 20
44.515
  0
CIRCLE
  5
47
330
17
100
AcDbEntity
  8
0
 62
1
100
AcDbCircle
 10
9.524655172413793
 20
44.0925
 30
0.0
 40
0.13125
  0
CIRCLE
  5
48
330
17
100
AcDbEntity
  8
0
 62
1
100
AcDbCircle
 10
11.18293103448276
 20
44.0925
 30
0.0
 40
0.13125
  0
LWPOLYLINE
  5
49
330
17
100
AcDbEntity
  8
0
 62
3
100
AcDbPolyline
 90
4
 70
1
 10
12.623706896551724
 20
0.485
 10
12.623706896551724
 20
0.97
 10
14.156982758620689
 20
0.97
 10
14.156982758620689
 20
0.485
  0
CIRCLE
  5
4A
330
17
100
AcDbEntity
  8
0
 62
1
100
AcDbCircle
 10
12.561206896551724
 20
0.9075
 30
0.0
 40
0.13125
  0
CIRCLE
  5
4B
330
17
100
AcDbEntity
  8
0
 62
1
100
AcDbCircle
 10
14.219482758620689
 20
0.9075
 30
0.0
 40
0.13125
  0
LWPOLYLINE
  5
4C
330
17
100
AcDbEntity
  8
0
 62
3
100
AcDbPolyline
 90
4
 70
1
 10
12.623706896551724
 20
44.515
 10
12.623706896551724
 20
44.03
 10
14.156982758620689
 20
44.03
 10
14.156982758620689
 20
44.515
  0
CIRCLE
  5
4D
330
17
100
AcDbEntity
  8
0
 62
1
100
AcDbCircle
 10
12.561206896551724
 20
44.0925
 30
0.0
 40
0.13125
  0
CIRCLE
  5
4E
330
17
100
AcDbEntity
  8
0
 62
1
100
AcDbCircle
 10
14.219482758620689
 20
44.0925
 30
0.0
 40
0.13125
  0
LWPOLYLINE
  5
4F
330
17
100
AcDbEntity
  8
0
 62
3
100
AcDbPolyline
 90
4
 70
1
 10
15.660258620689655
 20
0.485
 10
15.660258620689655
 20
0.97
 10
17.193534482758622
 20
0.97
 10
17.193534482758622
 20
0.485
  0
CIRCLE
  5
50
330
17
100
AcDbEntity
  8
0
 62
1
100
AcDbCircle
 10
15.597758620689655
 20
0.9075
 30
0.0
 40
0.13125
  0
CIRCLE
  5
51
330
17
100
AcDbEntity
  8
0
 62
1
100
AcDbCircle
 10
17.256034482758622
 20
0.9075
 30
0.0
 40
0.13125
  0
LWPOLYLINE
  5
52
330
17
100
AcDbEntity
  8
0
 62
3
100
AcDbPolyline
 90
4
 70
1
 10
15.660258620689655
 20
44.515
 10
15.660258620689655
 20
44.03
 10
17.193534482758622
 20
44.03
 10
17.193534482758622
 20
44.515
  0
CIRCLE
  5
53
330
17
100
AcDbEntity
  8
0
 62
1
100
AcDbCircle
 10
15.597758620689655
 20
44.0925
 30
0.0
 40
0.13125
  0
CIRCLE
  5
54
330
17
100
AcDbEntity
  8
0
 62
1
100
AcDbCircle
 10
17.256034482758622
 20
44.0925
 30
0.0
 40
0.13125
  0
LWPOLYLINE
  5
55
330
17
100
AcDbEntity
  8
0
 62
3
100
AcDbPolyline
 90
4
 70
1
 10
18.696810344827586
 20
0.485
 10
18.696810344827586
 20
0.97
 10
20.23008620689655
 20
0.97
 10
20.23008620689655
 20
0.485
  0
CIRCLE
  5
56
330
17
100
AcDbEntity
  8
0
 62
1
100
AcDbCircle
 10
18.634310344827586
 20
0.9075
 30
0.0
 40
0.13125
  0
CIRCLE
  5
57
330
17
100
AcDbEntity
  8
0
 62
1
100
AcDbCircle
 10
20.29258620689655
 20
0.9075
 30
0.0
 40
0.13125
  0
LWPOLYLINE
  5
58
330
17
100
AcDbEntity
  8
0
 62
3
100
AcDbPolyline
 90
4
 70
1
 10
18.696810344827586
 20
44.515
 10
18.696810344827586
 20
44.03
 10
20.23008620689655
 20
44.03
 10
20.23008620689655
 20
44.515
  0
CIRCLE
  5
59
330
17
100
AcDbEntity
  8
0
 62
1
100
AcDbCircle
 10
18.634310344827586
 20
44.0925
 30
0.0
 40
0.13125
  0
CIRCLE
  5
5A
330
17
100
AcDbEntity
  8
0
 62
1
100
AcDbCircle
 10
20.29258620689655
 20
44.0925
 30
0.0
 40
0.13125
  0
LWPOLYLINE
  5
5B
330
17
100
AcDbEntity
  8
0
 62
3
100
AcDbPolyline
 90
4
 70
1
 10
21.73336206896552
 20
0.485
 10
21.73336206896552
 20
0.97
 10
23.266637931034484
 20
0.97
 10
23.266637931034484
 20
0.485
  0
CIRCLE
  5
5C
330
17
100
AcDbEntity
  8
0
 62
1
100
AcDbCircle
 10
21.67086206896552
 20
0.9075
 30
0.0
 40
0.13125
  0
CIRCLE
  5
5D
330
17
100
AcDbEntity
  8
0
 62
1
100
AcDbCircle
 10
23.329137931034484
 20
0.9075
 30
0.0
 40
0.13125
  0
LWPOLYLINE
  5
5E
330
17
100
AcDbEntity
  8
0
 62
3
100
AcDbPolyline
 90
4
 70
1
 10
21.73336206896552
 20
44.515
 10
21.73336206896552
 20
44.03
 10
23.266637931034484
 20
44.03
 10
23.266637931034484
 20
44.515
  0
CIRCLE
  5
5F
330
17
100
AcDbEntity
  8
0
 62
1
100
AcDbCircle
 10
21.67086206896552
 20
44.0925
 30
0.0
 40
0.13125
  0
CIRCLE
  5
60
330
17
100
AcDbEntity
  8
0
 62
1
100
AcDbCircle
 10
23.329137931034484
 20
44.0925
 30
0.0
 40
0.13125
  0
LWPOLYLINE
  5
61
330
17
100
AcDbEntity
  8
0
 62
3
100
AcDbPolyline
 90
4
 70
1
 10
24.76991379310345
 20
0.485
 10
24.76991379310345
 20
0.97
 10
26.303189655172414
 20
0.97
 10
26.303189655172414
 20
0.485
  0
CIRCLE
  5
62
330
17
100
AcDbEntity
  8
0
 62
1
100
AcDbCircle
 10
24.70741379310345
 20
0.9075
 30
0.0
 40
0.13125
  0
CIRCLE
  5
63
330
17
100
AcDbEntity
  8
0
 62
1
100
AcDbCircle
 10
26.365689655172414
 20
0.9075
 30
0.0
 40
0.13125
  0
LWPOLYLINE
  5
64
330
17
100
AcDbEntity
  8
0
 62
3
100
AcDbPolyline
 90
4
 70
1
 10
24.76991379310345
 20
44.515
 10
24.76991379310345
 20
44.03
 10
26.303189655172414
 20
44.03
 10
26.303189655172414
 20
44.515
  0
CIRCLE
  5
65
330
17
100
AcDbEntity
  8
0
 62
1
100
AcDbCircle
 10
24.70741379310345
 20
44.0925
 30
0.0
 40
0.13125
  0
CIRCLE
  5
66
330
17
100
AcDbEntity
  8
0
 62
1
100
AcDbCircle
 10
26.365689655172414
 20
44.0925
 30
0.0
 40
0.13125
  0
LWPOLYLINE
  5
67
330
17
100
AcDbEntity
  8
0
 62
3
100
AcDbPolyline
 90
4
 70
1
 10
27.806465517241378
 20
0.485
 10
27.806465517241378
 20
0.97
 10
29.339741379310343
 20
0.97
 10
29.339741379310343
 20
0.485
  0
CIRCLE
  5
68
330
17
100
AcDbEntity
  8
0
 62
1
100
AcDbCircle
 10
27.743965517241378
 20
0.9075
 30
0.0
 40
0.13125
  0
CIRCLE
  5
69
330
17
100
AcDbEntity
  8
0
 62
1
100
AcDbCircle
 10
29.402241379310343
 20
0.9075
 30
0.0
 40
0.13125
  0
LWPOLYLINE
  5
6A
330
17
100
AcDbEntity
  8
0
 62
3
100
AcDbPolyline
 90
4
 70
1
 10
27.806465517241378
 20
44.515
 10
27.806465517241378
 20
44.03
 10
29.339741379310343
 20
44.03
 10
29.339741379310343
 20
44.515
  0
CIRCLE
  5
6B
330
17
100
AcDbEntity
  8
0
 62
1
100
AcDbCircle
 10
27.743965517241378
 20
44.0925
 30
0.0
 40
0.13125
  0
CIRCLE
  5
6C
330
17
100
AcDbEntity
  8
0
 62
1
100
AcDbCircle
 10
29.402241379310343
 20
44.0925
 30
0.0
 40
0.13125
  0
LWPOLYLINE
  5
6D
330
17
100
AcDbEntity
  8
0
 62
3
100
AcDbPolyline
 90
4
 70
1
 10
30.84301724137931
 20
0.485
 10
30.84301724137931
 20
0.97
 10
32.376293103448276
 20
0.97
 10
32.376293103448276
 20
0.485
  0
CIRCLE
  5
6E
330
17
100
AcDbEntity
  8
0
 62
1
100
AcDbCircle
 10
30.78051724137931
 20
0.9075
 30
0.0
 40
0.13125
  0
CIRCLE
  5
6F
330
17
100
AcDbEntity
  8
0
 62
1
100
AcDbCircle
 10
32.438793103448276
 20
0.9075
 30
0.0
 40
0.13125
  0
LWPOLYLINE
  5
70
330
17
100
AcDbEntity
  8
0
 62
3
100
AcDbPolyline
 90
4
 70
1
 10
30.84301724137931
 20
44.515
 10
30.84301724137931
 20
44.03
 10
32.376293103448276
 20
44.03
 10
32.376293103448276
 20
44.515
  0
CIRCLE
  5
71
330
17
100
AcDbEntity
  8
0
 62
1
100
AcDbCircle
 10
30.78051724137931
 20
44.0925
 30
0.0
 40
0.13125
  0
CIRCLE
  5
72
330
17
100
AcDbEntity
  8
0
 62
1
100
AcDbCircle
 10
32.438793103448276
 20
44.0925
 30
0.0
 40
0.13125
  0
LWPOLYLINE
  5
73
330
17
100
AcDbEntity
  8
0
 62
3
100
AcDbPolyline
 90
4
 70
1
 10
33.879568965517244
 20
0.485
 10
33.879568965517244
 20
0.97
 10
35.41284482758621
 20
0.97
 10
35.41284482758621
 20
0.485
  0
CIRCLE
  5
74
330
17
100
AcDbEntity
  8
0
 62
1
100
AcDbCircle
 10
33.817068965517244
 20
0.9075
 30
0.0
 40
0.13125
  0
CIRCLE
  5
75
330
17
100
AcDbEntity
  8
0
 62
1
100
AcDbCircle
 10
35.47534482758621
 20
0.9075
 30
0.0
 40
0.13125
  0
LWPOLYLINE
  5
76
330
17
100
AcDbEntity
  8
0
 62
3
100
AcDbPolyline
 90
4
 70
1
 10
33.879568965517244
 20
44.515
 10
33.879568965517244
 20
44.03
 10
35.41284482758621
 20
44.03
 10
35.41284482758621
 20
44.515
  0
CIRCLE
  5
77
330
17
100
AcDbEntity
  8
0
 62
1
100
AcDbCircle
 10
33.817068965517244
 20
44.0925
 30
0.0
 40
0.13125
  0
CIRCLE
  5
78
330
17
100
AcDbEntity
  8
0
 62
1
100
AcDbCircle
 10
35.47534482758621
 20
44.0925
 30
0.0
 40
0.13125
  0
LWPOLYLINE
  5
79
330
17
100
AcDbEntity
  8
0
 62
3
100
AcDbPolyline
 90
4
 70
1
 10
36.91612068965517
 20
0.485
 10
36.91612068965517
 20
0.97
 10
38.44939655172414
 20
0.97
 10
38.44939655172414
 20
0.485
  0
CIRCLE
  5
7A
330
17
100
AcDbEntity
  8
0
 62
1
100
AcDbCircle
 10
36.85362068965517
 20
0.9075
 30
0.0
 40
0.13125
  0
CIRCLE
  5
7B
330
17
100
AcDbEntity
  8
0
 62
1
100
AcDbCircle
 10
38.51189655172414
 20
0.9075
 30
0.0
 40
0.13125
  0
LWPOLYLINE
  5
7C
330
17
100
AcDbEntity
  8
0
 62
3
100
AcDbPolyline
 90
4
 70
1
 10
36.91612068965517
 20
44.515
 10
36.91612068965517
 20
44.03
 10
38.44939655172414
 20
44.03
 10
38.44939655172414
 20
44.515
  0
CIRCLE
  5
7D
330
17
100
AcDbEntity
  8
0
 62
1
100
AcDbCircle
 10
36.85362068965517
 20
44.0925
 30
0.0
 40
0.13125
  0
CIRCLE
  5
7E
330
17
100
AcDbEntity
  8
0
 62
1
100
AcDbCircle
 10
38.51189655172414
 20
44.0925
 30
0.0
 40
0.13125
  0
LWPOLYLINE
  5
7F
330
17
100
AcDbEntity
  8
0
 62
3
100
AcDbPolyline
 90
4
 70
1
 10
39.9526724137931
 20
0.485
 10
39.9526724137931
 20
0.97
 10
41.48594827586207
 20
0.97
 10
41.48594827586207
 20
0.485
  0
CIRCLE
  5
80
330
17
100
AcDbEntity
  8
0
 62
1
100
AcDbCircle
 10
39.8901724137931
 20
0.9075
 30
0.0
 40
0.13125
  0
CIRCLE
  5
81
330
17
100
AcDbEntity
  8
0
 62
1
100
AcDbCircle
 10
41.54844827586207
 20
0.9075
 30
0.0
 40
0.13125
  0
LWPOLYLINE
  5
82
330
17
100
AcDbEntity
  8
0
 62
3
100
AcDbPolyline
 90
4
 70
1
 10
39.9526724137931
 20
44.515
 10
39.9526724137931
 20
44.03
 10
41.48594827586207
 20
44.03
 10
41.48594827586207
 20
44.515
  0
CIRCLE
  5
83
330
17
100
AcDbEntity
  8
0
 62
1
100
AcDbCircle
 10
39.8901724137931
 20
44.0925
 30
0.0
 40
0.13125
  0
CIRCLE
  5
84
330
17
100
AcDbEntity
  8
0
 62
1
100
AcDbCircle
 10
41.54844827586207
 20
44.0925
 30
0.0
 40
0.13125
  0
LWPOLYLINE
  5
85
330
17
100
AcDbEntity
  8
0
 62
3
100
AcDbPolyline
 90
4
 70
1
 10
42.98922413793104
 20
0.485
 10
42.98922413793104
 20
0.97
 10
44.52250000000001
 20
0.97
 10
44.52250000000001
 20
0.485
  0
CIRCLE
  5
86
330
17
100
AcDbEntity
  8
0
 62
1
100
AcDbCircle
 10
42.92672413793104
 20
0.9075
 30
0.0
 40
0.13125
  0
CIRCLE
  5
87
330
17
100
AcDbEntity
  8
0
 62
1
100
AcDbCircle
 10
44.58500000000001
 20
0.9075
 30
0.0
 40
0.13125
  0
LWPOLYLINE
  5
88
330
17
100
AcDbEntity
  8
0
 62
3
100
AcDbPolyline
 90
4
 70
1
 10
42.98922413793104
 20
44.515
 10
42.98922413793104
 20
44.03
 10
44.52250000000001
 20
44.03
 10
44.52250000000001
 20
44.515
  0
CIRCLE
  5
89
330
17
100
AcDbEntity
  8
0
 62
1
100
AcDbCircle
 10
42.92672413793104
 20
44.0925
 30
0.0
 40
0.13125
  0
CIRCLE
  5
8A
330
17
100
AcDbEntity
  8
0
 62
1
100
AcDbCircle
 10
44.58500000000001
 20
44.0925
 30
0.0
 40
0.13125
  0
LWPOLYLINE
  5
8B
330
17
100
AcDbEntity
  8
0
 62
3
100
AcDbPolyline
 90
4
 70
1
 10
0.485
 20
0.4775
 10
0.97
 20
0.4775
 10
0.97
 20
2.0107758620689653
 10
0.485
 20
2.0107758620689653
  0
CIRCLE
  5
8C
330
17
100
AcDbEntity
  8
0
 62
1
100
AcDbCircle
 10
1.0325
 20
0.415
 30
0.0
 40
0.13125
  0
CIRCLE
  5
8D
330
17
100
AcDbEntity
  8
0
 62
1
100
AcDbCircle
 10
1.0325
 20
2.0732758620689653
 30
0.0
 40
0.13125
  0
LWPOLYLINE
  5
8E
330
17
100
AcDbEntity
  8
0
 62
3
100
AcDbPolyline
 90
4
 70
1
 10
44.515
 20
0.4775
 10
44.03
 20
0.4775
 10
44.03
 20
2.0107758620689653
 10
44.515
 20
2.0107758620689653
  0
CIRCLE
  5
8F
330
17
100
AcDbEntity
  8
0
 62
1
100
AcDbCircle
 10
43.9675
 20
0.415
 30
0.0
 40
0.13125
  0
CIRCLE
  5
90
330
17
100
AcDbEntity
  8
0
 62
1
100
AcDbCircle
 10
43.9675
 20
2.0732758620689653
 30
0.0
 40
0.13125
  0
LWPOLYLINE
  5
91
330
17
100
AcDbEntity
  8
0
 62
3
100
AcDbPolyline
 90
4
 70
1
 10
0.485
 20
3.514051724137931
 10
0.97
 20
3.514051724137931
 10
0.97
 20
5.047327586206897
 10
0.485
 20
5.047327586206897
  0
CIRCLE
  5
92
330
17
100
AcDbEntity
  8
0
 62
1
100
AcDbCircle
 10
1.0325
 20
3.451551724137931
 30
0.0
 40
0.13125
  0
CIRCLE
  5
93
330
17
100
AcDbEntity
  8
0
 62
1
100
AcDbCircle
 10
1.0325
 20
5.109827586206897
 30
0.0
 40
0.13125
  0
LWPOLYLINE
  5
94
330
17
100
AcDbEntity
  8
0
 62
3
100
AcDbPolyline
 90
4
 70
1
 10
44.515
 20
3.514051724137931
 10
44.03
 20
3.514051724137931
 10
44.03
 20
5.047327586206897
 10
44.515
 20
5.047327586206897
  0
CIRCLE
  5
95
330
17
100
AcDbEntity
  8
0
 62
1
100
AcDbCircle
 10
43.9675
 20
3.451551724137931
 30
0.0
 40
0.13125
  0
CIRCLE
  5
96
330
17
100
AcDbEntity
  8
0
 62
1
100
AcDbCircle
 10
43.9675
 20
5.109827586206897
 30
0.0
 40
0.13125
  0
LWPOLYLINE
  5
97
330
17
100
AcDbEntity
  8
0
 62
3
100
AcDbPolyline
 90
4
 70
1
 10
0.485
 20
6.550603448275862
 10
0.97
 20
6.550603448275862
 10
0.97
 20
8.083879310344829
 10
0.485
 20
8.083879310344829
  0
CIRCLE
  5
98
330
17
100
AcDbEntity
  8
0
 62
1
100
AcDbCircle
 10
1.0325
 20
6.488103448275862
 30
0.0
 40
0.13125
  0
CIRCLE
  5
99
330
17
100
AcDbEntity
  8
0
 62
1
100
AcDbCircle
 10
1.0325
 20
8.146379310344829
 30
0.0
 40
0.13125
  0
LWPOLYLINE
  5
9A
330
17
100
AcDbEntity
  8
0
 62
3
100
AcDbPolyline
 90
4
 70
1
 10
44.515
 20
6.550603448275862
 10
44.03
 20
6.550603448275862
 10
44.03
 20
8.083879310344829
 10
44.515
 20
8.083879310344829
  0
CIRCLE
  5
9B
330
17
100
AcDbEntity
  8
0
 62
1
100
AcDbCircle
 10
43.9675
 20
6.488103448275862
 30
0.0
 40
0.13125
  0
CIRCLE
  5
9C
330
17
100
AcDbEntity
  8
0
 62
1
100
AcDbCircle
 10
43.9675
 20
8.146379310344829
 30
0.0
 40
0.13125
  0
LWPOLYLINE
  5
9D
330
17
100
AcDbEntity
  8
0
 62
3
100
AcDbPolyline
 90
4
 70
1
 10
0.485
 20
9.587155172413793
 10
0.97
 20
9.587155172413793
 10
0.97
 20
11.12043103448276
 10
0.485
 20
11.12043103448276
  0
CIRCLE
  5
9E
330
17
100
AcDbEntity
  8
0
 62
1
100
AcDbCircle
 10
1.0325
 20
9.524655172413793
 30
0.0
 40
0.13125
  0
CIRCLE
  5
9F
330
17
100
AcDbEntity
  8
0
 62
1
100
AcDbCircle
 10
1.0325
 20
11.18293103448276
 30
0.0
 40
0.13125
  0
LWPOLYLINE
  5
A0
330
17
100
AcDbEntity
  8
0
 62
3
100
AcDbPolyline
 90
4
 70
1
 10
44.515
 20
9.587155172413793
 10
44.03
 20
9.587155172413793
 10
44.03
 20
11.12043103448276
 10
44.515
 20
11.12043103448276
  0
CIRCLE
  5
A1
330
17
100
AcDbEntity
  8
0
 62
1
100
AcDbCircle
 10
43.9675
 20
9.524655172413793
 30
0.0
 40
0.13125
  0
CIRCLE
  5
A2
330
17
100
AcDbEntity
  8
0
 62
1
100
AcDbCircle
 10
43.9675
 20
11.18293103448276
 30
0.0
 40
0.13125
  0
LWPOLYLINE
  5
A3
330
17
100
AcDbEntity
  8
0
 62
3
100
AcDbPolyline
 90
4
 70
1
 10
0.485
 20
12.623706896551724
 10
0.97
 20
12.623706896551724
 10
0.97
 20
14.156982758620689
 10
0.485
 20
14.156982758620689
  0
CIRCLE
  5
A4
330
17
100
AcDbEntity
  8
0
 62
1
100
AcDbCircle
 10
1.0325
 20
12.561206896551724
 30
0.0
 40
0.13125
  0
CIRCLE
  5
A5
330
17
100
AcDbEntity
  8
0
 62
1
100
AcDbCircle
 10
1.0325
 20
14.219482758620689
 30
0.0
 40
0.13125
  0
LWPOLYLINE
  5
A6
330
17
100
AcDbEntity
  8
0
 62
3
100
AcDbPolyline
 90
4
 70
1
 10
44.515
 20
12.623706896551724
 10
44.03
 20
12.623706896551724
 10
44.03
 20
14.156982758620689
 10
44.515
 20
14.156982758620689
  0
CIRCLE
  5
A7
330
17
100
AcDbEntity
  8
0
 62
1
100
AcDbCircle
 10
43.9675
 20
12.561206896551724
 30
0.0
 40
0.13125
  0
CIRCLE
  5
A8
330
17
100
AcDbEntity
  8
0
 62
1
100
AcDbCircle
 10
43.9675
 20
14.219482758620689
 30
0.0
 40
0.13125
  0
LWPOLYLINE
  5
A9
330
17
100
AcDbEntity
  8
0
 62
3
100
AcDbPolyline
 90
4
 70
1
 10
0.485
 20
15.660258620689655
 10
0.97
 20
15.660258620689655
 10
0.97
 20
17.193534482758622
 10
0.485
 20
17.193534482758622
  0
CIRCLE
  5
AA
330
17
100
AcDbEntity
  8
0
 62
1
100
AcDbCircle
 10
1.0325
 20
15.597758620689655
 30
0.0
 40
0.13125
  0
CIRCLE
  5
AB
330
17
100
AcDbEntity
  8
0
 62
1
100
AcDbCircle
 10
1.0325
 20
17.256034482758622
 30
0.0
 40
0.13125
  0
LWPOLYLINE
  5
AC
330
17
100
AcDbEntity
  8
0
 62
3
100
AcDbPolyline
 90
4
 70
1
 10
44.515
 20
15.660258620689655
 10
44.03
 20
15.660258620689655
 10
44.03
 20
17.193534482758622
 10
44.515
 20
17.193534482758622
  0
CIRCLE
  5
AD
330
17
100
AcDbEntity
  8
0
 62
1
100
AcDbCircle
 10
43.9675
 20
15.597758620689655
 30
0.0
 40
0.13125
  0
CIRCLE
  5
AE
330
17
100
AcDbEntity
  8
0
 62
1
100
AcDbCircle
 10
43.9675
 20
17.256034482758622
 30
0.0
 40
0.13125
  0
LWPOLYLINE
  5
AF
330
17
100
AcDbEntity
  8
0
 62
3
100
AcDbPolyline
 90
4
 70
1
 10
0.485
 20
18.696810344827586
 10
0.97
 20
18.696810344827586
 10
0.97
 20
20.23008620689655
 10
0.485
 20
20.23008620689655
  0
CIRCLE
  5
B0
330
17
100
AcDbEntity
  8
0
 62
1
100
AcDbCircle
 10
1.0325
 20
18.634310344827586
 30
0.0
 40
0.13125
  0
CIRCLE
  5
B1
330
17
100
AcDbEntity
  8
0
 62
1
100
AcDbCircle
 10
1.0325
 20
20.29258620689655
 30
0.0
 40
0.13125
  0
LWPOLYLINE
  5
B2
330
17
100
AcDbEntity
  8
0
 62
3
100
AcDbPolyline
 90
4
 70
1
 10
44.515
 20
18.696810344827586
 10
44.03
 20
18.696810344827586
 10
44.03
 20
20.23008620689655
 10
44.515
 20
20.23008620689655
  0
CIRCLE
  5
B3
330
17
100
AcDbEntity
  8
0
 62
1
100
AcDbCircle
 10
43.9675
 20
18.634310344827586
 30
0.0
 40
0.13125
  0
CIRCLE
  5
B4
330
17
100
AcDbEntity
  8
0
 62
1
100
AcDbCircle
 10
43.9675
 20
20.29258620689655
 30
0.0
 40
0.13125
  0
LWPOLYLINE
  5
B5
330
17
100
AcDbEntity
  8
0
 62
3
100
AcDbPolyline
 90
4
 70
1
 10
0.485
 20
21.73336206896552
 10
0.97
 20
21.73336206896552
 10
0.97
 20
23.266637931034484
 10
0.485
 20
23.266637931034484
  0
CIRCLE
  5
B6
330
17
100
AcDbEntity
  8
0
 62
1
100
AcDbCircle
 10
1.0325
 20
21.67086206896552
 30
0.0
 40
0.13125
  0
CIRCLE
  5
B7
330
17
100
AcDbEntity
  8
0
 62
1
100
AcDbCircle
 10
1.0325
 20
23.329137931034484
 30
0.0
 40
0.13125
  0
LWPOLYLINE
  5
B8
330
17
100
AcDbEntity
  8
0
 62
3
100
AcDbPolyline
 90
4
 70
1
 10
44.515
 20
21.73336206896552
 10
44.03
 20
21.73336206896552
 10
44.03
 20
23.266637931034484
 10
44.515
 20
23.266637931034484
  0
CIRCLE
  5
B9
330
17
100
AcDbEntity
  8
0
 62
1
100
AcDbCircle
 10
43.9675
 20
21.67086206896552
 30
0.0
 40
0.13125
  0
CIRCLE
  5
BA
330
17
100
AcDbEntity
  8
0
 62
1
100
AcDbCircle
 10
43.9675
 20
23.329137931034484
 30
0.0
 40
0.13125
  0
LWPOLYLINE
  5
BB
330
17
100
AcDbEntity
  8
0
 62
3
100
AcDbPolyline
 90
4
 70
1
 10
0.485
 20
24.76991379310345
 10
0.97
 20
24.76991379310345
 10
0.97
 20
26.303189655172414
 10
0.485
 20
26.303189655172414
  0
CIRCLE
  5
BC
330
17
100
AcDbEntity
  8
0
 62
1
100
AcDbCircle
 10
1.0325
 20
24.70741379310345
 30
0.0
 40
0.13125
  0
CIRCLE
  5
BD
330
17
100
AcDbEntity
  8
0
 62
1
100
AcDbCircle
 10
1.0325
 20
26.365689655172414
 30
0.0
 40
0.13125
  0
LWPOLYLINE
  5
BE
330
17
100
AcDbEntity
  8
0
 62
3
100
AcDbPolyline
 90
4
 70
1
 10
44.515
 20
24.76991379310345
 10
44.03
 20
24.76991379310345
 10
44.03
 20
26.303189655172414
 10
44.515
 20
26.303189655172414
  0
CIRCLE
  5
BF
330
17
100
AcDbEntity
  8
0
 62
1
100
AcDbCircle
 10
43.9675
 20
24.70741379310345
 30
0.0
 40
0.13125
  0
CIRCLE
  5
C0
330
17
100
AcDbEntity
  8
0
 62
1
100
AcDbCircle
 10
43.9675
 20
26.365689655172414
 30
0.0
 40
0.13125
  0
LWPOLYLINE
  5
C1
330
17
100
AcDbEntity
  8
0
 62
3
100
AcDbPolyline
 90
4
 70
1
 10
0.485
 20
27.806465517241378
 10
0.97
 20
27.806465517241378
 10
0.97
 20
29.339741379310343
 10
0.485
 20
29.339741379310343
  0
CIRCLE
  5
C2
330
17
100
AcDbEntity
  8
0
 62
1
100
AcDbCircle
 10
1.0325
 20
27.743965517241378
 30
0.0
 40
0.13125
  0
CIRCLE
  5
C3
330
17
100
AcDbEntity
  8
0
 62
1
100
AcDbCircle
 10
1.0325
 20
29.402241379310343
 30
0.0
 40
0.13125
  0
LWPOLYLINE
  5
C4
330
17
100
AcDbEntity
  8
0
 62
3
100
AcDbPolyline
 90
4
 70
1
 10
44.515
 20
27.806465517241378
 10
44.03
 20
27.806465517241378
 10
44.03
 20
29.339741379310343
 10
44.515
 20
29.339741379310343
  0
CIRCLE
  5
C5
330
17
100
AcDbEntity
  8
0
 62
1
100
AcDbCircle
 10
43.9675
 20
27.743965517241378
 30
0.0
 40
0.13125
  0
CIRCLE
  5
C6
330
17
100
AcDbEntity
  8
0
 62
1
100
AcDbCircle
 10
43.9675
 20
29.402241379310343
 30
0.0
 40
0.13125
  0
LWPOLYLINE
  5
C7
330
17
100
AcDbEntity
  8
0
 62
3
100
AcDbPolyline
 90
4
 70
1
 10
0.485
 20
30.84301724137931
 10
0.97
 20
30.84301724137931
 10
0.97
 20
32.376293103448276
 10
0.485
 20
32.376293103448276
  0
CIRCLE
  5
C8
330
17
100
AcDbEntity
  8
0
 62
1
100
AcDbCircle
 10
1.0325
 20
30.78051724137931
 30
0.0
 40
0.13125
  0
CIRCLE
  5
C9
330
17
100
AcDbEntity
  8
0
 62
1
100
AcDbCircle
 10
1.0325
 20
32.438793103448276
 30
0.0
 40
0.13125
  0
LWPOLYLINE
  5
CA
330
17
100
AcDbEntity
  8
0
 62
3
100
AcDbPolyline
 90
4
 70
1
 10
44.515
 20
30.84301724137931
 10
44.03
 20
30.84301724137931
 10
44.03
 20
32.376293103448276
 10
44.515
 20
32.376293103448276
  0
CIRCLE
  5
CB
330
17
100
AcDbEntity
  8
0
 62
1
100
AcDbCircle
 10
43.9675
 20
30.78051724137931
 30
0.0
 40
0.13125
  0
CIRCLE
  5
CC
330
17
100
AcDbEntity
  8
0
 62
1
100
AcDbCircle
 10
43.9675
 20
32.438793103448276
 30
0.0
 40
0.13125
  0
LWPOLYLINE
  5
CD
330
17
100
AcDbEntity
  8
0
 62
3
100
AcDbPolyline
 90
4
 70
1
 10
0.485
 20
33.879568965517244
 10
0.97
 20
33.879568965517244
 10
0.97
 20
35.41284482758621
 10
0.485
 20
35.41284482758621
  0
CIRCLE
  5
CE
330
17
100
AcDbEntity
  8
0
 62
1
100
AcDbCircle
 10
1.0325
 20
33.817068965517244
 30
0.0
 40
0.13125
  0
CIRCLE
  5
CF
330
17
100
AcDbEntity
  8
0
 62
1
100
AcDbCircle
 10
1.0325
 20
35.47534482758621
 30
0.0
 40
0.13125
  0
LWPOLYLINE
  5
D0
330
17
100
AcDbEntity
  8
0
 62
3
100
AcDbPolyline
 90
4
 70
1
 10
44.515
 20
33.879568965517244
 10
44.03
 20
33.879568965517244
 10
44.03
 20
35.41284482758621
 10
44.515
 20
35.41284482758621
  0
CIRCLE
  5
D1
330
17
100
AcDbEntity
  8
0
 62
1
100
AcDbCircle
 10
43.9675
 20
33.817068965517244
 30
0.0
 40
0.13125
  0
CIRCLE
  5
D2
330
17
100
AcDbEntity
  8
0
 62
1
100
AcDbCircle
 10
43.9675
 20
35.47534482758621
 30
0.0
 40
0.13125
  0
LWPOLYLINE
  5
D3
330
17
100
AcDbEntity
  8
0
 62
3
100
AcDbPolyline
 90
4
 70
1
 10
0.485
 20
36.91612068965517
 10
0.97
 20
36.91612068965517
 10
0.97
 20
38.44939655172414
 10
0.485
 20
38.44939655172414
  0
CIRCLE
  5
D4
330
17
100
AcDbEntity
  8
0
 62
1
100
AcDbCircle
 10
1.0325
 20
36.85362068965517
 30
0.0
 40
0.13125
  0
CIRCLE
  5
D5
330
17
100
AcDbEntity
  8
0
 62
1
100
AcDbCircle
 10
1.0325
 20
38.51189655172414
 30
0.0
 40
0.13125
  0
LWPOLYLINE
  5
D6
330
17
100
AcDbEntity
  8
0
 62
3
100
AcDbPolyline
 90
4
 70
1
 10
44.515
 20
36.91612068965517
 10
44.03
 20
36.91612068965517
 10
44.03
 20
38.44939655172414
 10
44.515
 20
38.44939655172414
  0
CIRCLE
  5
D7
330
17
100
AcDbEntity
  8
0
 62
1
100
AcDbCircle
 10
43.9675
 20
36.85362068965517
 30
0.0
 40
0.13125
  0
CIRCLE
  5
D8
330
17
100
AcDbEntity
  8
0
 62
1
100
AcDbCircle
 10
43.9675
 20
38.51189655172414
 30
0.0
 40
0.13125
  0
LWPOLYLINE
  5
D9
330
17
100
AcDbEntity
  8
0
 62
3
100
AcDbPolyline
 90
4
 70
1
 10
0.485
 20
39.9526724137931
 10
0.97
 20
39.9526724137931
 10
0.97
 20
41.48594827586207
 10
0.485
 20
41.48594827586207
  0
CIRCLE
  5
DA
330
17
100
AcDbEntity
  8
0
 62
1
100
AcDbCircle
 10
1.0325
 20
39.8901724137931
 30
0.0
 40
0.13125
  0
CIRCLE
  5
DB
330
17
100
AcDbEntity
  8
0
 62
1
100
AcDbCircle
 10
1.0325
 20
41.54844827586207
 30
0.0
 40
0.13125
  0
LWPOLYLINE
  5
DC
330
17
100
AcDbEntity
  8
0
 62
3
100
AcDbPolyline
 90
4
 70
1
 10
44.515
 20
39.9526724137931
 10
44.03
 20
39.9526724137931
 10
44.03
 20
41.48594827586207
 10
44.515
 20
41.48594827586207
  0
CIRCLE
  5
DD
330
17
100
AcDbEntity
  8
0
 62
1
100
AcDbCircle
 10
43.9675
 20
39.8901724137931
 30
0.0
 40
0.13125
  0
CIRCLE
  5
DE
330
17
100
AcDbEntity
  8
0
 62
1
100
AcDbCircle
 10
43.9675
 20
41.54844827586207
 30
0.0
 40
0.13125
  0
LWPOLYLINE
  5
DF
330
17
100
AcDbEntity
  8
0
 62
3
100
AcDbPolyline
 90
4
 70
1
 10
0.485
 20
42.98922413793104
 10
0.97
 20
42.98922413793104
 10
0.97
 20
44.52250000000001
 10
0.485
 20
44.52250000000001
  0
CIRCLE
  5
E0
330
17
100
AcDbEntity
  8
0
 62
1
100
AcDbCircle
 10
1.0325
 20
42.92672413793104
 30
0.0
 40
0.13125
  0
CIRCLE
  5
E1
330
17
100
AcDbEntity
  8
0
 62
1
100
AcDbCircle
 10
1.0325
 20
44.58500000000001
 30
0.0
 40
0.13125
  0
LWPOLYLINE
  5
E2
330
17
100
AcDbEntity
  8
0
 62
3
100
AcDbPolyline
 90
4
 70
1
 10
44.515
 20
42.98922413793104
 10
44.03
 20
42.98922413793104
 10
44.03
 20
44.52250000000001
 10
44.515
 20
44.52250000000001
  0
CIRCLE
  5
E3
330
17
100
AcDbEntity
  8
0
 62
1
100
AcDbCircle
 10
43.9675
 20
42.92672413793104
 30
0.0
 40
0.13125
  0
CIRCLE
  5
E4
330
17
100
AcDbEntity
  8
0
 62
1
100
AcDbCircle
 10
43.9675
 20
44.58500000000001
 30
0.0
 40
0.13125
  0
LWPOLYLINE
  5
E5
330
17
100
AcDbEntity
  8
0
 62
3
100
AcDbPolyline
 90
65
 70
1
 10
50.0
 20
5.515
 10
50.0
 20
0.485
 10
50.485
 20
0.485
 10
50.485
 20
0.0
 10
52.00327586206897
 20
0.0
 10
52.00327586206897
 20
0.485
 10
53.521551724137936
 20
0.485
 10
53.52155172413793
 20
0.0
 10
55.0398275862069
 20
0.0
 10
55.0398275862069
 20
0.485
 10
56.558103448275865
 20
0.485
 10
56.55810344827586
 20
0.0
 10
58.07637931034483
 20
0.0
 10
58.07637931034483
 20
0.485
 10
59.594655172413795
 20
0.485
 10
59.594655172413795
 20
0.0
 10
61.11293103448276
 20
0.0
 10
61.11293103448276
 20
0.485
 10
62.631206896551724
 20
0.485
 10
62.631206896551724
 20
0.0
 10
64.14948275862069
 20
0.0
 10
64.14948275862069
 20
0.485
 10
65.66775862068965
 20
0.485
 10
65.66775862068965
 20
0.0
 10
67.18603448275861
 20
0.0
 10
67.18603448275861
 20
0.485
 10
68.70431034482759
 20
0.485
 10
68.70431034482759
 20
0.0
 10
70.22258620689655
 20
0.0
 10
70.22258620689655
 20
0.485
 10
71.74086206896551
 20
0.485
 10
71.74086206896553
 20
0.0
 10
73.25913793103449
 20
0.0
 10
73.25913793103449
 20
0.485
 10
74.77741379310345
 20
0.485
 10
74.77741379310345
 20
0.0
 10
76.29568965517241
 20
0.0
 10
76.29568965517241
 20
0.485
 10
77.81396551724137
 20
0.485
 10
77.81396551724137
 20
0.0
 10
79.33224137931033
 20
0.0
 10
79.33224137931033
 20
0.485
 10
80.85051724137931
 20
0.485
 10
80.85051724137931
 20
0.0
 10
82.36879310344827
 20
0.0
 10
82.36879310344827
 20
0.485
 10
83.88706896551723
 20
0.485
 10
83.88706896551724
 20
0.0
 10
85.4053448275862
 20
0.0
 10
85.4053448275862
 20
0.485
 10
86.92362068965517
 20
0.485
 10
86.92362068965517
 20
0.0
 10
88.44189655172413
 20
0.0
 10
88.44189655172413
 20
0.485
 10
89.9601724137931
 20
0.485
 10
89.9601724137931
 20
0.0
 10
91.47844827586206
 20
0.0
 10
91.47844827586206
 20
0.485
 10
92.99672413793103
 20
0.485
 10
92.99672413793104
 20
0.0
 10
94.515
 20
0.0
 10
94.515
 20
0.485
 10
95.0
 20
0.485
 10
95.0
 20
5.515
 10
50.0
 20
5.515
  0
CIRCLE
  5
E6
330
17
100
AcDbEntity
  8
0
 62
1
100
AcDbCircle
 10
52.06577586206897
 20
0.5475
 30
0.0
 40
0.13125
  0
CIRCLE
  5
E7
330
17
100
AcDbEntity
  8
0
 62
1
100
AcDbCircle
 10
53.459051724137936
 20
0.5475
 30
0.0
 40
0.13125
  0
CIRCLE
  5
E8
330
17
100
AcDbEntity
  8
0
 62
1
100
AcDbCircle
 10
55.1023275862069
 20
0.5475
 30
0.0
 40
0.13125
  0
CIRCLE
  5
E9
330
17
100
AcDbEntity
  8
0
 62
1
100
AcDbCircle
 10
56.495603448275865
 20
0.5475
 30
0.0
 40
0.13125
  0
CIRCLE
  5
EA
330
17
100
AcDbEntity
  8
0
 62
1
100
AcDbCircle
 10
58.13887931034483
 20
0.5475
 30
0.0
 40
0.13125
  0
CIRCLE
  5
EB
330
17
100
AcDbEntity
  8
0
 62
1
100
AcDbCircle
 10
59.532155172413795
 20
0.5475
 30
0.0
 40
0.13125
  0
CIRCLE
  5
EC
330
17
100
AcDbEntity
  8
0
 62
1
100
AcDbCircle
 10
61.175431034482756
 20
0.5475
 30
0.0
 40
0.13125
  0
CIRCLE
  5
ED
330
17
100
AcDbEntity
  8
0
 62
1
100
AcDbCircle
 10
62.568706896551724
 20
0.5475
 30
0.0
 40
0.13125
  0
CIRCLE
  5
EE
330
17
100
AcDbEntity
  8
0
 62
1
100
AcDbCircle
 10
64.21198275862069
 20
0.5475
 30
0.0
 40
0.13125
  0
CIRCLE
  5
EF
330
17
100
AcDbEntity
  8
0
 62
1
100
AcDbCircle
 10
65.60525862068965
 20
0.5475
 30
0.0
 40
0.13125
  0
CIRCLE
  5
F0
330
17
100
AcDbEntity
  8
0
 62
1
100
AcDbCircle
 10
67.24853448275863
 20
0.5475
 30
0.0
 40
0.13125
  0
CIRCLE
  5
F1
330
17
100
AcDbEntity
  8
0
 62
1
100
AcDbCircle
 10
68.64181034482759
 20
0.5475
 30
0.0
 40
0.13125
  0
CIRCLE
  5
F2
330
17
100
AcDbEntity
  8
0
 62
1
100
AcDbCircle
 10
70.28508620689655
 20
0.5475
 30
0.0
 40
0.13125
  0
CIRCLE
  5
F3
330
17
100
AcDbEntity
  8
0
 62
1
100
AcDbCircle
 10
71.67836206896551
 20
0.5475
 30
0.0
 40
0.13125
  0
CIRCLE
  5
F4
330
17
100
AcDbEntity
  8
0
 62
1
100
AcDbCircle
 10
73.32163793103449
 20
0.5475
 30
0.0
 40
0.13125
  0
CIRCLE
  5
F5
330
17
100
AcDbEntity
  8
0
 62
1
100
AcDbCircle
 10
74.71491379310345
 20
0.5475
 30
0.0
 40
0.13125
  0
CIRCLE
  5
F6
330
17
100
AcDbEntity
  8
0
 62
1
100
AcDbCircle
 10
76.35818965517241
 20
0.5475
 30
0.0
 40
0.13125
  0
CIRCLE
  5
F7
330
17
100
AcDbEntity
  8
0
 62
1
100
AcDbCircle
 10
77.75146551724137
 20
0.5475
 30
0.0
 40
0.13125
  0
CIRCLE
  5
F8
330
17
100
AcDbEntity
  8
0
 62
1
100
AcDbCircle
 10
79.39474137931035
 20
0.5475
 30
0.0
 40
0.13125
  0
CIRCLE
  5
F9
330
17
100
AcDbEntity
  8
0
 62
1
100
AcDbCircle
 10
80.78801724137931
 20
0.5475
 30
0.0
 40
0.13125
  0
CIRCLE
  5
FA
330
17
100
AcDbEntity
  8
0
 62
1
100
AcDbCircle
 10
82.43129310344827
 20
0.5475
 30
0.0
 40
0.13125
  0
CIRCLE
  5
FB
330
17
100
AcDbEntity
  8
0
 62
1
100
AcDbCircle
 10
83.82456896551723
 20
0.5475
 30
0.0
 40
0.13125
  0
CIRCLE
  5
FC
330
17
100
AcDbEntity
  8
0
 62
1
100
AcDbCircle
 10
85.4678448275862
 20
0.5475
 30
0.0
 40
0.13125
  0
CIRCLE
  5
FD
330
17
100
AcDbEntity
  8
0
 62
1
100
AcDbCircle
 10
86.86112068965517
 20
0.5475
 30
0.0
 40
0.13125
  0
CIRCLE
  5
FE
330
17
100
AcDbEntity
  8
0
 62
1
100
AcDbCircle
 10
88.50439655172414
 20
0.5475
 30
0.0
 40
0.13125
  0
CIRCLE
  5
FF
330
17
100
AcDbEntity
  8
0
 62
1
100
AcDbCircle
 10
89.8976724137931
 20
0.5475
 30
0.0
 40
0.13125
  0
CIRCLE
  5
100
330
17
100
AcDbEntity
  8
0
 62
1
100
AcDbCircle
 10
91.54094827586206
 20
0.5475
 30
0.0
 40
0.13125
  0
CIRCLE
  5
101
330
17
100
AcDbEntity
  8
0
 62
1
100
AcDbCircle
 10
92.93422413793103
 20
0.5475
 30
0.0
 40
0.13125
  0
LWPOLYLINE
  5
102
330
17
100
AcDbEntity
  8
0
 62
3
100
AcDbPolyline
 90
65
 70
1
 10
50.0
 20
15.515
 10
50.0
 20
10.485
 10
50.485
 20
10.485
 10
50.485
 20
10.0
 10
52.00327586206897
 20
10.0
 10
52.00327586206897
 20
10.485
 10
53.521551724137936
 20
10.485
 10
53.52155172413793
 20
10.0
 10
55.0398275862069
 20
10.0
 10
55.0398275862069
 20
10.485
 10
56.558103448275865
 20
10.485
 10
56.55810344827586
 20
10.0
 10
58.07637931034483
 20
10.0
 10
58.07637931034483
 20
10.485
 10
59.594655172413795
 20
10.485
 10
59.594655172413795
 20
10.0
 10
61.11293103448276
 20
10.0
 10
61.11293103448276
 20
10.485
 10
62.631206896551724
 20
10.485
 10
62.631206896551724
 20
10.0
 10
64.14948275862069
 20
10.0
 10
64.14948275862069
 20
10.485
 10
65.66775862068965
 20
10.485
 10
65.66775862068965
 20
10.0
 10
67.18603448275861
 20
10.0
 10
67.18603448275861
 20
10.485
 10
68.70431034482759
 20
10.485
 10
68.70431034482759
 20
10.0
 10
70.22258620689655
 20
10.0
 10
70.22258620689655
 20
10.485
 10
71.74086206896551
 20
10.485
 10
71.74086206896553
 20
10.0
 10
73.25913793103449
 20
10.0
 10
73.25913793103449
 20
10.485
 10
74.77741379310345
 20
10.485
 10
74.77741379310345
 20
10.0
 10
76.29568965517241
 20
10.0
 10
76.29568965517241
 20
10.485
 10
77.81396551724137
 20
10.485
 10
77.81396551724137
 20
10.0
 10
79.33224137931033
 20
10.0
 10
79.33224137931033
 20
10.485
 10
80.85051724137931
 20
10.485
 10
80.85051724137931
 20
10.0
 10
82.36879310344827
 20
10.0
 10
82.36879310344827
 20
10.485
 10
83.88706896551723
 20
10.485
 10
83.88706896551724
 20
10.0
 10
85.4053448275862
 20
10.0
 10
85.4053448275862
 20
10.485
 10
86.92362068965517
 20
10.485
 10
86.92362068965517
 20
10.0
 10
88.44189655172413
 20
10.0
 10
88.44189655172413
 20
10.485
 10
89.9601724137931
 20
10.485
 10
89.9601724137931
 20
10.0
 10
91.47844827586206
 20
10.0
 10
91.47844827586206
 20
10.485
 10
92.99672413793103
 20
10.485
 10
92.99672413793104
 20
10.0
 10
94.515
 20
10.0
 10
94.515
 20
10.485
 10
95.0
 20
10.485
 10
95.0
 20
15.515
 10
50.0
 20
15.515
  0
CIRCLE
  5
103
330
17
100
AcDbEntity
  8
0
 62
1
100
AcDbCircle
 10
52.06577586206897
 20
10.5475
 30
0.0
 40
0.13125
  0
CIRCLE
  5
104
330
17
100
AcDbEntity
  8
0
 62
1
100
AcDbCircle
 10
53.459051724137936
 20
10.5475
 30
0.0
 40
0.13125
  0
CIRCLE
  5
105
330
17
100
AcDbEntity
  8
0
 62
1
100
AcDbCircle
 10
55.1023275862069
 20
10.5475
 30
0.0
 40
0.13125
  0
CIRCLE
  5
106
330
17
100
AcDbEntity
  8
0
 62
1
100
AcDbCircle
 10
56.495603448275865
 20
10.5475
 30
0.0
 40
0.13125
  0
CIRCLE
  5
107
330
17
100
AcDbEntity
  8
0
 62
1
100
AcDbCircle
 10
58.13887931034483
 20
10.5475
 30
0.0
 40
0.13125
  0
CIRCLE
  5
108
330
17
100
AcDbEntity
  8
0
 62
1
100
AcDbCircle
 10
59.532155172413795
 20
10.5475
 30
0.0
 40
0.13125
  0
CIRCLE
  5
109
330
17
100
AcDbEntity
  8
0
 62
1
100
AcDbCircle
 10
61.175431034482756
 20
10.5475
 30
0.0
 40
0.13125
  0
CIRCLE
  5
10A
330
17
100
AcDbEntity
  8
0
 62
1
100
AcDbCircle
 10
62.568706896551724
 20
10.5475
 30
0.0
 40
0.13125
  0
CIRCLE
  5
10B
330
17
100
AcDbEntity
  8
0
 62
1
100
AcDbCircle
 10
64.21198275862069
 20
10.5475
 30
0.0
 40
0.13125
  0
CIRCLE
  5
10C
330
17
100
AcDbEntity
  8
0
 62
1
100
AcDbCircle
 10
65.60525862068965
 20
10.5475
 30
0.0
 40
0.13125
  0
CIRCLE
  5
10D
330
17
100
AcDbEntity
  8
0
 62
1
100
AcDbCircle
 10
67.24853448275863
 20
10.5475
 30
0.0
 40
0.13125
  0
CIRCLE
  5
10E
330
17
100
AcDbEntity
  8
0
 62
1
100
AcDbCircle
 10
68.64181034482759
 20
10.5475
 30
0.0
 40
0.13125
  0
CIRCLE
  5
10F
330
17
100
AcDbEntity
  8
0
 62
1
100
AcDbCircle
 10
70.28508620689655
 20
10.5475
 30
0.0
 40
0.13125
  0
CIRCLE
  5
110
330
17
100
AcDbEntity
  8
0
 62
1
100
AcDbCircle
 10
71.67836206896551
 20
10.5475
 30
0.0
 40
0.13125
  0
CIRCLE
  5
111
330
17
100
AcDbEntity
  8
0
 62
1
100
AcDbCircle
 10
73.32163793103449
 20
10.5475
 30
0.0
 40
0.13125
  0
CIRCLE
  5
112
330
17
100
AcDbEntity
  8
0
 62
1
100
AcDbCircle
 10
74.71491379310345
 20
10.5475
 30
0.0
 40
0.13125
  0
CIRCLE
  5
113
330
17
100
AcDbEntity
  8
0
 62
1
100
AcDbCircle
 10
76.35818965517241
 20
10.5475
 30
0.0
 40
0.13125
  0
CIRCLE
  5
114
330
17
100
AcDbEntity
  8
0
 62
1
100
AcDbCircle
 10
77.75146551724137
 20
10.5475
 30
0.0
 40
0.13125
  0
CIRCLE
  5
115
330
17
100
AcDbEntity
  8
0
 62
1
100
AcDbCircle
 10
79.39474137931035
 20
10.5475
 30
0.0
 40
0.13125
  0
CIRCLE
  5
116
330
17
100
AcDbEntity
  8
0
 62
1
100
AcDbCircle
 10
80.78801724137931
 20
10.5475
 30
0.0
 40
0.13125
  0
CIRCLE
  5
117
330
17
100
AcDbEntity
  8
0
 62
1
100
AcDbCircle
 10
82.43129310344827
 20
10.5475
 30
0.0
 40
0.13125
  0
CIRCLE
  5
118
330
17
100
AcDbEntity
  8
0
 62
1
100
AcDbCircle
 10
83.82456896551723
 20
10.5475
 30
0.0
 40
0.13125
  0
CIRCLE
  5
119
330
17
100
AcDbEntity
  8
0
 62
1
100
AcDbCircle
 10
85.4678448275862
 20
10.5475
 30
0.0
 40
0.13125
  0
CIRCLE
  5
11A
330
17
100
AcDbEntity
  8
0
 62
1
100
AcDbCircle
 10
86.86112068965517
 20
10.5475
 30
0.0
 40
0.13125
  0
CIRCLE
  5
11B
330
17
100
AcDbEntity
  8
0
 62
1
100
AcDbCircle
 10
88.50439655172414
 20
10.5475
 30
0.0
 40
0.13125
  0
CIRCLE
  5
11C
330
17
100
AcDbEntity
  8
0
 62
1
100
AcDbCircle
 10
89.8976724137931
 20
10.5475
 30
0.0
 40
0.13125
  0
CIRCLE
  5
11D
330
17
100
AcDbEntity
  8
0
 62
1
100
AcDbCircle
 10
91.54094827586206
 20
10.5475
 30
0.0
 40
0.13125
  0
CIRCLE
  5
11E
330
17
100
AcDbEntity
  8
0
 62
1
100
AcDbCircle
 10
92.93422413793103
 20
10.5475
 30
0.0
 40
0.13125
  0
LWPOLYLINE
  5
11F
330
17
100
AcDbEntity
  8
0
 62
3
100
AcDbPolyline
 90
63
 70
1
 10
50.0
 20
25.515
 10
50.0
 20
20.485
 10
50.0
 20
20.0
 10
51.51827586206897
 20
20.0
 10
51.51827586206897
 20
20.485
 10
53.03655172413794
 20
20.485
 10
53.03655172413793
 20
20.0
 10
54.5548275862069
 20
20.0
 10
54.5548275862069
 20
20.485
 10
56.073103448275866
 20
20.485
 10
56.07310344827586
 20
20.0
 10
57.59137931034483
 20
20.0
 10
57.59137931034483
 20
20.485
 10
59.109655172413795
 20
20.485
 10
59.109655172413795
 20
20.0
 10
60.62793103448276
 20
20.0
 10
60.62793103448276
 20
20.485
 10
62.146206896551725
 20
20.485
 10
62.146206896551725
 20
20.0
 10
63.66448275862069
 20
20.0
 10
63.66448275862069
 20
20.485
 10
65.18275862068965
 20
20.485
 10
65.18275862068965
 20
20.0
 10
66.70103448275862
 20
20.0
 10
66.70103448275862
 20
20.485
 10
68.21931034482758
 20
20.485
 10
68.21931034482759
 20
20.0
 10
69.73758620689655
 20
20.0
 10
69.73758620689655
 20
20.485
 10
71.25586206896551
 20
20.485
 10
71.25586206896551
 20
20.0
 10
72.77413793103447
 20
20.0
 10
72.77413793103447
 20
20.485
 10
74.29241379310345
 20
20.485
 10
74.29241379310345
 20
20.0
 10
75.81068965517241
 20
20.0
 10
75.81068965517241
 20
20.485
 10
77.32896551724137
 20
20.485
 10
77.32896551724139
 20
20.0
 10
78.84724137931035
 20
20.0
 10
78.84724137931035
 20
20.485
 10
80.36551724137931
 20
20.485
 10
80.36551724137931
 20
20.0
 10
81.88379310344827
 20
20.0
 10
81.88379310344827
 20
20.485
 10
83.40206896551724
 20
20.485
 10
83.40206896551724
 20
20.0
 10
84.9203448275862
 20
20.0
 10
84.9203448275862
 20
20.485
 10
86.43862068965517
 20
20.485
 10
86.43862068965518
 20
20.0
 10
87.95689655172414
 20
20.0
 10
87.95689655172414
 20
20.485
 10
89.4751724137931
 20
20.485
 10
89.4751724137931
 20
20.0
 10
90.99344827586206
 20
20.0
 10
90.99344827586206
 20
20.485
 10
92.51172413793104
 20
20.485
 10
92.51172413793104
 20
20.0
 10
94.03
 20
20.0
 10
94.03
 20
20.485
 10
94.03
 20
25.515
 10
50.0
 20
25.515
  0
CIRCLE
  5
120
330
17
100
AcDbEntity
  8
0
 62
1
100
AcDbCircle
 10
51.58077586206897
 20
20.5475
 30
0.0
 40
0.13125
  0
CIRCLE
  5
121
330
17
100
AcDbEntity
  8
0
 62
1
100
AcDbCircle
 10
52.97405172413794
 20
20.5475
 30
0.0
 40
0.13125
  0
CIRCLE
  5
122
330
17
100
AcDbEntity
  8
0
 62
1
100
AcDbCircle
 10
54.6173275862069
 20
20.5475
 30
0.0
 40
0.13125
  0
CIRCLE
  5
123
330
17
100
AcDbEntity
  8
0
 62
1
100
AcDbCircle
 10
56.010603448275866
 20
20.5475
 30
0.0
 40
0.13125
  0
CIRCLE
  5
124
330
17
100
AcDbEntity
  8
0
 62
1
100
AcDbCircle
 10
57.65387931034483
 20
20.5475
 30
0.0
 40
0.13125
  0
CIRCLE
  5
125
330
17
100
AcDbEntity
  8
0
 62
1
100
AcDbCircle
 10
59.047155172413795
 20
20.5475
 30
0.0
 40
0.13125
  0
CIRCLE
  5
126
330
17
100
AcDbEntity
  8
0
 62
1
100
AcDbCircle
 10
60.690431034482756
 20
20.5475
 30
0.0
 40
0.13125
  0
CIRCLE
  5
127
330
17
100
AcDbEntity
  8
0
 62
1
100
AcDbCircle
 10
62.083706896551725
 20
20.5475
 30
0.0
 40
0.13125
  0
CIRCLE
  5
128
330
17
100
AcDbEntity
  8
0
 62
1
100
AcDbCircle
 10
63.72698275862069
 20
20.5475
 30
0.0
 40
0.13125
  0
CIRCLE
  5
129
330
17
100
AcDbEntity
  8
0
 62
1
100
AcDbCircle
 10
65.12025862068965
 20
20.5475
 30
0.0
 40
0.13125
  0
CIRCLE
  5
12A
330
17
100
AcDbEntity
  8
0
 62
1
100
AcDbCircle
 10
66.76353448275862
 20
20.5475
 30
0.0
 40
0.13125
  0
CIRCLE
  5
12B
330
17
100
AcDbEntity
  8
0
 62
1
100
AcDbCircle
 10
68.15681034482758
 20
20.5475
 30
0.0
 40
0.13125
  0
CIRCLE
  5
12C
330
17
100
AcDbEntity
  8
0
 62
1
100
AcDbCircle
 10
69.80008620689655
 20
20.5475
 30
0.0
 40
0.13125
  0
CIRCLE
  5
12D
330
17
100
AcDbEntity
  8
0
 62
1
100
AcDbCircle
 10
71.19336206896551
 20
20.5475
 30
0.0
 40
0.13125
  0
CIRCLE
  5
12E
330
17
100
AcDbEntity
  8
0
 62
1
100
AcDbCircle
 10
72.83663793103449
 20
20.5475
 30
0.0
 40
0.13125
  0
CIRCLE
  5
12F
330
17
100
AcDbEntity
  8
0
 62
1
100
AcDbCircle
 10
74.22991379310345
 20
20.5475
 30
0.0
 40
0.13125
  0
CIRCLE
  5
130
330
17
100
AcDbEntity
  8
0
 62
1
100
AcDbCircle
 10
75.87318965517241
 20
20.5475
 30
0.0
 40
0.13125
  0
CIRCLE
  5
131
330
17
100
AcDbEntity
  8
0
 62
1
100
AcDbCircle
 10
77.26646551724137
 20
20.5475
 30
0.0
 40
0.13125
  0
CIRCLE
  5
132
330
17
100
AcDbEntity
  8
0
 62
1
100
AcDbCircle
 10
78.90974137931035
 20
20.5475
 30
0.0
 40
0.13125
  0
CIRCLE
  5
133
330
17
100
AcDbEntity
  8
0
 62
1
100
AcDbCircle
 10
80.30301724137931
 20
20.5475
 30
0.0
 40
0.13125
  0
CIRCLE
  5
134
330
17
100
AcDbEntity
  8
0
 62
1
100
AcDbCircle
 10
81.94629310344828
 20
20.5475
 30
0.0
 40
0.13125
  0
CIRCLE
  5
135
330
17
100
AcDbEntity
  8
0
 62
1
100
AcDbCircle
 10
83.33956896551724
 20
20.5475
 30
0.0
 40
0.13125
  0
CIRCLE
  5
136
330
17
100
AcDbEntity
  8
0
 62
1
100
AcDbCircle
 10
84.9828448275862
 20
20.5475
 30
0.0
 40
0.13125
  0
CIRCLE
  5
137
330
17
100
AcDbEntity
  8
0
 62
1
100
AcDbCircle
 10
86.37612068965517
 20
20.5475
 30
0.0
 40
0.13125
  0
CIRCLE
  5
138
330
17
100
AcDbEntity
  8
0
 62
1
100
AcDbCircle
 10
88.01939655172414
 20
20.5475
 30
0.0
 40
0.13125
  0
CIRCLE
  5
139
330
17
100
AcDbEntity
  8
0
 62
1
100
AcDbCircle
 10
89.4126724137931
 20
20.5475
 30
0.0
 40
0.13125
  0
CIRCLE
  5
13A
330
17
100
AcDbEntity
  8
0
 62
1
100
AcDbCircle
 10
91.05594827586208
 20
20.5475
 30
0.0
 40
0.13125
  0
CIRCLE
  5
13B
330
17
100
AcDbEntity
  8
0
 62
1
100
AcDbCircle
 10
92.44922413793104
 20
20.5475
 30
0.0
 40
0.13125
  0
LWPOLYLINE
  5
13C
330
17
100
AcDbEntity
  8
0
 62
3
100
AcDbPolyline
 90
63
 70
1
 10
50.0
 20
35.515
 10
50.0
 20
30.485
 10
50.0
 20
30.0
 10
51.51827586206897
 20
30.0
 10
51.51827586206897
 20
30.485
 10
53.03655172413794
 20
30.485
 10
53.03655172413793
 20
30.0
 10
54.5548275862069
 20
30.0
 10
54.5548275862069
 20
30.485
 10
56.073103448275866
 20
30.485
 10
56.07310344827586
 20
30.0
 10
57.59137931034483
 20
30.0
 10
57.59137931034483
 20
30.485
 10
59.109655172413795
 20
30.485
 10
59.109655172413795
 20
30.0
 10
60.62793103448276
 20
30.0
 10
60.62793103448276
 20
30.485
 10
62.146206896551725
 20
30.485
 10
62.146206896551725
 20
30.0
 10
63.66448275862069
 20
30.0
 10
63.66448275862069
 20
30.485
 10
65.18275862068965
 20
30.485
 10
65.18275862068965
 20
30.0
 10
66.70103448275862
 20
30.0
 10
66.70103448275862
 20
30.485
 10
68.21931034482758
 20
30.485
 10
68.21931034482759
 20
30.0
 10
69.73758620689655
 20
30.0
 10
69.73758620689655
 20
30.485
 10
71.25586206896551
 20
30.485
 10
71.25586206896551
 20
30.0
 10
72.77413793103447
 20
30.0
 10
72.77413793103447
 20
30.485
 10
74.29241379310345
 20
30.485
 10
74.29241379310345
 20
30.0
 10
75.81068965517241
 20
30.0
 10
75.81068965517241
 20
30.485
 10
77.32896551724137
 20
30.485
 10
77.32896551724139
 20
30.0
 10
78.84724137931035
 20
30.0
 10
78.84724137931035
 20
30.485
 10
80.36551724137931
 20
30.485
 10
80.36551724137931
 20
30.0
 10
81.88379310344827
 20
30.0
 10
81.88379310344827
 20
30.485
 10
83.40206896551724
 20
30.485
 10
83.40206896551724
 20
30.0
 10
84.9203448275862
 20
30.0
 10
84.9203448275862
 20
30.485
 10
86.43862068965517
 20
30.485
 10
86.43862068965518
 20
30.0
 10
87.95689655172414
 20
30.0
 10
87.95689655172414
 20
30.485
 10
89.4751724137931
 20
30.485
 10
89.4751724137931
 20
30.0
 10
90.99344827586206
 20
30.0
 10
90.99344827586206
 20
30.485
 10
92.51172413793104
 20
30.485
 10
92.51172413793104
 20
30.0
 10
94.03
 20
30.0
 10
94.03
 20
30.485
 10
94.03
 20
35.515
 10
50.0
 20
35.515
  0
CIRCLE
  5
13D
330
17
100
AcDbEntity
  8
0
 62
1
100
AcDbCircle
 10
51.58077586206897
 20
30.5475
 30
0.0
 40
0.13125
  0
CIRCLE
  5
13E
330
17
100
AcDbEntity
  8
0
 62
1
100
AcDbCircle
 10
52.97405172413794
 20
30.5475
 30
0.0
 40
0.13125
  0
CIRCLE
  5
13F
330
17
100
AcDbEntity
  8
0
 62
1
100
AcDbCircle
 10
54.6173275862069
 20
30.5475
 30
0.0
 40
0.13125
  0
CIRCLE
  5
140
330
17
100
AcDbEntity
  8
0
 62
1
100
AcDbCircle
 10
56.010603448275866
 20
30.5475
 30
0.0
 40
0.13125
  0
CIRCLE
  5
141
330
17
100
AcDbEntity
  8
0
 62
1
100
AcDbCircle
 10
57.65387931034483
 20
30.5475
 30
0.0
 40
0.13125
  0
CIRCLE
  5
142
330
17
100
AcDbEntity
  8
0
 62
1
100
AcDbCircle
 10
59.047155172413795
 20
30.5475
 30
0.0
 40
0.13125
  0
CIRCLE
  5
143
330
17
100
AcDbEntity
  8
0
 62
1
100
AcDbCircle
 10
60.690431034482756
 20
30.5475
 30
0.0
 40
0.13125
  0
CIRCLE
  5
144
330
17
100
AcDbEntity
  8
0
 62
1
100
AcDbCircle
 10
62.083706896551725
 20
30.5475
 30
0.0
 40
0.13125
  0
CIRCLE
  5
145
330
17
100
AcDbEntity
  8
0
 62
1
100
AcDbCircle
 10
63.72698275862069
 20
30.5475
 30
0.0
 40
0.13125
  0
CIRCLE
  5
146
330
17
100
AcDbEntity
  8
0
 62
1
100
AcDbCircle
 10
65.12025862068965
 20
30.5475
 30
0.0
 40
0.13125
  0
CIRCLE
  5
147
330
17
100
AcDbEntity
  8
0
 62
1
100
AcDbCircle
 10
66.76353448275862
 20
30.5475
 30
0.0
 40
0.13125
  0
CIRCLE
  5
148
330
17
100
AcDbEntity
  8
0
 62
1
100
AcDbCircle
 10
68.15681034482758
 20
30.5475
 30
0.0
 40
0.13125
  0
CIRCLE
  5
149
330
17
100
AcDbEntity
  8
0
 62
1
100
AcDbCircle
 10
69.80008620689655
 20
30.5475
 30
0.0
 40
0.13125
  0
CIRCLE
  5
14A
330
17
100
AcDbEntity
  8
0
 62
1
100
AcDbCircle
 10
71.19336206896551
 20
30.5475
 30
0.0
 40
0.13125
  0
CIRCLE
  5
14B
330
17
100
AcDbEntity
  8
0
 62
1
100
AcDbCircle
 10
72.83663793103449
 20
30.5475
 30
0.0
 40
0.13125
  0
CIRCLE
  5
14C
330
17
100
AcDbEntity
  8
0
 62
1
100
AcDbCircle
 10
74.22991379310345
 20
30.5475
 30
0.0
 40
0.13125
  0
CIRCLE
  5
14D
330
17
100
AcDbEntity
  8
0
 62
1
100
AcDbCircle
 10
75.87318965517241
 20
30.5475
 30
0.0
 40
0.13125
  0
CIRCLE
  5
14E
330
17
100
AcDbEntity
  8
0
 62
1
100
AcDbCircle
 10
77.26646551724137
 20
30.5475
 30
0.0
 40
0.13125
  0
CIRCLE
  5
14F
330
17
100
AcDbEntity
  8
0
 62
1
100
AcDbCircle
 10
78.90974137931035
 20
30.5475
 30
0.0
 40
0.13125
  0
CIRCLE
  5
150
330
17
100
AcDbEntity
  8
0
 62
1
100
AcDbCircle
 10
80.30301724137931
 20
30.5475
 30
0.0
 40
0.13125
  0
CIRCLE
  5
151
330
17
100
AcDbEntity
  8
0
 62
1
100
AcDbCircle
 10
81.94629310344828
 20
30.5475
 30
0.0
 40
0.13125
  0
CIRCLE
  5
152
330
17
100
AcDbEntity
  8
0
 62
1
100
AcDbCircle
 10
83.33956896551724
 20
30.5475
 30
0.0
 40
0.13125
  0
CIRCLE
  5
153
330
17
100
AcDbEntity
  8
0
 62
1
100
AcDbCircle
 10
84.9828448275862
 20
30.5475
 30
0.0
 40
0.13125
  0
CIRCLE
  5
154
330
17
100
AcDbEntity
  8
0
 62
1
100
AcDbCircle
 10
86.37612068965517
 20
30.5475
 30
0.0
 40
0.13125
  0
CIRCLE
  5
155
330
17
100
AcDbEntity
  8
0
 62
1
100
AcDbCircle
 10
88.01939655172414
 20
30.5475
 30
0.0
 40
0.13125
  0
CIRCLE
  5
156
330
17
100
AcDbEntity
  8
0
 62
1
100
AcDbCircle
 10
89.4126724137931
 20
30.5475
 30
0.0
 40
0.13125
  0
CIRCLE
  5
157
330
17
100
AcDbEntity
  8
0
 62
1
100
AcDbCircle
 10
91.05594827586208
 20
30.5475
 30
0.0
 40
0.13125
  0
CIRCLE
  5
158
330
17
100
AcDbEntity
  8
0
 62
1
100
AcDbCircle
 10
92.44922413793104
 20
30.5475
 30
0.0
 40
0.13125
  0
LWPOLYLINE
  5
159
330
17
100
AcDbEntity
  8
0
 62
3
100
AcDbPolyline
 90
4
 70
1
 10
0.0
 20
50.0
 10
43.905
 20
50.0
 10
43.905
 20
93.905
 10
0.0
 20
93.905
  0
ENDSEC
  0
SECTION
  2
OBJECTS
  0
DICTIONARY
  5
A
330
0
100
AcDbDictionary
281
1
  3
ACAD_COLOR
350
B
  3
ACAD_GROUP
350
C
  3
ACAD_LAYOUT
350
D
  3
ACAD_MATERIAL
350
E
  3
ACAD_MLEADERSTYLE
350
F
  3
ACAD_MLINESTYLE
350
10
  3
ACAD_PLOTSETTINGS
350
11
  3
ACAD_PLOTSTYLENAME
350
12
  3
ACAD_SCALELIST
350
14
  3
ACAD_TABLESTYLE
350
15
  3
ACAD_VISUALSTYLE
350
16
  3
EZDXF_META
350
2D
  0
DICTIONARY
  5
B
330
A
100
AcDbDictionary
281
1
  0
DICTIONARY
  5
C
330
A
100
AcDbDictionary
281
1
  0
DICTIONARY
  5
D
330
A
100
AcDbDictionary
281
1
  3
Model
350
1A
  3
Layout1
350
1E
  0
DICTIONARY
  5
E
330
A
100
AcDbDictionary
281
1
  3
ByBlock
350
1F
  3
ByLayer
350
20
  3
Global
350
21
  0
DICTIONARY
  5
F
330
A
100
AcDbDictionary
281
1
  3
Standard
350
2C
  0
DICTIONARY
  5
10
330
A
100
AcDbDictionary
281
1
  3
Standard
350
22
  0
DICTIONARY
  5
11
330
A
100
AcDbDictionary
281
1
  0
ACDBDICTIONARYWDFLT
  5
12
330
A
100
AcDbDictionary
281
1
  3
Normal
350
13
100
AcDbDictionaryWithDefault
340
13
  0
ACDBPLACEHOLDER
  5
13
330
12
  0
DICTIONARY
  5
14
330
A
100
AcDbDictionary
281
1
  0
DICTIONARY
  5
15
330
A
100
AcDbDictionary
281
1
  0
DICTIONARY
  5
16
330
A
100
AcDbDictionary
281
1
  0
LAYOUT
  5
1A
330
D
100
AcDbPlotSettings
  1

  4
A3
  6

 40
7.5
 41
20.0
 42
7.5
 43
20.0
 44
420.0
 45
297.0
 46
0.0
 47
0.0
 48
0.0
 49
0.0
140
0.0
141
0.0
142
1.0
143
1.0
 70
1024
 72
1
 73
0
 74
5
  7

 75
16
 76
0
 77
2
 78
300
147
1.0
148
0.0
149
0.0
100
AcDbLayout
  1
Model
 70
1
 71
0
 10
0.0
 20
0.0
 11
420.0
 21
297.0
 12
0.0
 22
0.0
 32
0.0
 14
1e+20
 24
1e+20
 34
1e+20
 15
-1e+20
 25
-1e+20
 35
-1e+20
146
0.0
 13
0.0
 23
0.0
 33
0.0
 16
1.0
 26
0.0
 36
0.0
 17
0.0
 27
1.0
 37
0.0
 76
1
330
17
  0
LAYOUT
  5
1E
330
D
100
AcDbPlotSettings
  1

  4
A3
  6

 40
7.5
 41
20.0
 42
7.5
 43
20.0
 44
420.0
 45
297.0
 46
0.0
 47
0.0
 48
0.0
 49
0.0
140
0.0
141
0.0
142
1.0
143
1.0
 70
0
 72
1
 73
0
 74
5
  7

 75
16
 76
0
 77
2
 78
300
147
1.0
148
0.0
149
0.0
100
AcDbLayout
  1
Layout1
 70
1
 71
1
 10
0.0
 20
0.0
 11
420.0
 21
297.0
 12
0.0
 22
0.0
 32
0.0
 14
1e+20
 24
1e+20
 34
1e+20
 15
-1e+20
 25
-1e+20
 35
-1e+20
146
0.0
 13
0.0
 23
0.0
 33
0.0
 16
1.0
 26
0.0
 36
0.0
 17
0.0
 27
1.0
 37
0.0
 76
1
330
1B
  0
MATERIAL
  5
1F
102
{ACAD_REACTORS
330
E
102
}
330
E
100
AcDbMaterial
  1
ByBlock
  2

 70
0
 40
1.0
 71
1
 41
1.0
 91
-1023410177
 42
1.0
 72
1
  3

 73
1
 74
1
 75
1
 44
0.5
 73
0
 45
1.0
 46
1.0
 77
1
  4

 78
1
 79
1
170
1
 48
1.0
171
1
  6

172
1
173
1
174
1
140
1.0
141
1.0
175
1
  7

176
1
177
1
178
1
143
1.0
179
1
  8

270
1
271
1
272
1
145
1.0
146
1.0
273
1
  9

274
1
275
1
276
1
 42
1.0
 72
1
  3

 73
1
 74
1
 75
1
 94
63
  0
MATERIAL
  5
20
102
{ACAD_REACTORS
330
E
102
}
330
E
100
AcDbMaterial
  1
ByLayer
  2

 70
0
 40
1.0
 71
1
 41
1.0
 91
-1023410177
 42
1.0
 72
1
  3

 73
1
 74
1
 75
1
 44
0.5
 73
0
 45
1.0
 46
1.0
 77
1
  4

 78
1
 79
1
170
1
 48
1.0
171
1
  6

172
1
173
1
174
1
140
1.0
141
1.0
175
1
  7

176
1
177
1
178
1
143
1.0
179
1
  8

270
1
271
1
272
1
145
1.0
146
1.0
273
1
  9

274
1
275
1
276
1
 42
1.0
 72
1
  3

 73
1
 74
1
 75
1
 94
63
  0
MATERIAL
  5
21
102
{ACAD_REACTORS
330
E
102
}
330
E
100
AcDbMaterial
  1
Global
  2

 70
0
 40
1.0
 71
1
 41
1.0
 91
-1023410177
 42
1.0
 72
1
  3

 73
1
 74
1
 75
1
 44
0.5
 73
0
 45
1.0
 46
1.0
 77
1
  4

 78
1
 79
1
170
1
 48
1.0
171
1
  6

172
1
173
1
174
1
140
1.0
141
1.0
175
1
  7

176
1
177
1
178
1
143
1.0
179
1
  8

270
1
271
1
272
1
145
1.0
146
1.0
273
1
  9

274
1
275
1
276
1
 42
1.0
 72
1
  3

 73
1
 74
1
 75
1
 94
63
  0
MLINESTYLE
  5
22
102
{ACAD_REACTORS
330
10
102
}
330
10
100
AcDbMlineStyle
  2
Standard
 70
0
  3

 62
256
 51
90.0
 52
90.0
 71
2
 49
0.5
 62
256
  6
BYLAYER
 49
-0.5
 62
256
  6
BYLAYER
  0
MLEADERSTYLE
  5
2C
102
{ACAD_REACTORS
330
F
102
}
330
F
100
AcDbMLeaderStyle
179
2
170
2
171
1
172
0
 90
2
 40
0.0
 41
0.0
173
1
 91
-1056964608
 92
-2
290
1
 42
2.0
291
1
 43
8.0
  3
Standard
 44
4.0
300

342
29
174
1
175
1
176
0
178
1
 93
-1056964608
 45
4.0
292
0
297
0
 46
4.0
 94
-1056964608
 47
1.0
 49
1.0
140
1.0
294
1
141
0.0
177
0
142
1.0
295
0
296
0
143
3.75
271
0
272
9
273
9
  0
DICTIONARY
  5
2D
330
A
100
AcDbDictionary
280
1
281
1
  3
CREATED_BY_EZDXF
350
2E
  3
WRITTEN_BY_EZDXF
350
15C
  0
DICTIONARYVAR
  5
2E
330
2D
100
DictionaryVariables
280
0
  1
1.4.3 @ 2025-12-24T07:54:29.102875+00:00
  0
DICTIONARYVAR
  5
15C
330
2D
100
DictionaryVariables
280
0
  1
1.4.3 @ 2025-12-24T07:54:29.106679+00:00
  0
ENDSEC
  0
EOF
