<?xml version="1.0" encoding="UTF-8"?>
<svg xmlns="http://www.w3.org/2000/svg" 
     width="16.0000in" 
     height="8.2500in" 
     viewBox="0 0 16.0000 8.2500">
  <title>VISUALIZATION_RIGHT_RAIL.v124</title>
  <g id="VISUALIZATION_RIGHT_RAIL.v124" data-name="VISUALIZATION_RIGHT_RAIL.v124">
  <path d="M 2.5984 2.0000 L 13.4016 2.0000 L 13.4016 2.6071 L 14.0000 2.6071 L 14.0000 3.2143 L 14.0000 3.2143 L 13.4016 3.2143 L 13.4016 3.8214 L 14.0000 3.8214 L 14.0000 4.4286 L 14.0000 4.4286 L 13.4016 4.4286 L 13.4016 5.0357 L 14.0000 5.0357 L 14.0000 5.6429 L 14.0000 5.6429 L 13.4016 5.6429 L 13.4016 6.2500 L 2.5984 6.2500 L 2.5984 5.6429 L 2.0000 5.6429 L 2.0000 5.0357 L 2.0000 5.0357 L 2.5984 5.0357 L 2.5984 4.4286 L 2.0000 4.4286 L 2.0000 3.8214 L 2.0000 3.8214 L 2.5984 3.8214 L 2.5984 3.2143 L 2.0000 3.2143 L 2.0000 2.6071 L 2.0000 2.6071 L 2.5984 2.6071 L 2.5984 2.0000 Z" fill="none" stroke="#ff0000" stroke-width="0.001"/>
  </g>
</svg>